<?xml version="1.0" encoding="utf-8"?>
<!-- Generator: Adobe Illustrator 17.0.0, SVG Export Plug-In . SVG Version: 6.00 Build 0)  -->
<!DOCTYPE svg PUBLIC "-//W3C//DTD SVG 1.1//EN" "http://www.w3.org/Graphics/SVG/1.1/DTD/svg11.dtd">
<svg version="1.1" id="Layer_1" xmlns="http://www.w3.org/2000/svg" xmlns:xlink="http://www.w3.org/1999/xlink" x="0px" y="0px"
	 width="4000px" height="734px" viewBox="0 0 4000 734" enable-background="new 0 0 4000 734" xml:space="preserve">
<g>
	<g>
		<g>
			<polyline fill="#0533FF" points="1801,640 0,640 0,620 1789,620 1801,640 			"/>
		</g>
		<g>
			<polyline fill="#0533FF" points="2199,640 4000,640 4000,620 2211,620 2199,640 			"/>
		</g>
		<g>
			<polyline fill="#FFFFFF" points="1999.5,319.333 1990.95,344.94 1984.35,373 1974.95,404.44 1965.4,429.126 1952.64,454.187 
				1935.17,478.622 1908.93,502.2 1880.52,518.428 1859.39,528.057 1817.5,549.271 1801.5,560.334 1801.5,582 1804.97,597.338 
				1807.06,605.783 1814.64,624.856 1826.36,641.5 1835.52,649.974 1848.3,658.383 1867.77,666.9 1887.94,672.864 1911.19,678.277 
				1937.93,684.779 1967.75,695.834 1986.45,707.855 1999.5,718 2019.2,703.553 2038.18,693.388 2061.29,685.002 2099,675.983 
				2122.35,670.058 2145.85,661.701 2167.61,647.369 2185.49,624.611 2194.38,600.254 2197.41,582.044 2198.27,570.746 
				2198.5,560.334 2182.08,549.016 2158.45,536.229 2140.2,527.872 2119.98,518.666 2094,504.186 2081,493.333 2062.33,478 
				2044.33,449.333 2031.67,420.666 2019.2,385.892 2009.46,346.853 1999.77,316.666 			"/>
		</g>
		<g>
			<path fill="#020100" d="M1822.41,584.543c1.58,8.132,0.67,15.151-2.04,15.68c-2.71,0.529-6.19-5.635-7.78-13.766
				c-1.58-8.132-0.67-15.151,2.04-15.68C1817.34,570.248,1820.82,576.412,1822.41,584.543"/>
		</g>
		<g>
			<path fill="#020100" d="M1840.43,573.641c1.51,7.725,0.53,14.416-2.18,14.944c-2.71,0.529-6.13-5.306-7.64-13.03
				c-1.5-7.725-0.53-14.415,2.18-14.944C1835.51,560.082,1838.92,565.917,1840.43,573.641"/>
		</g>
		<g>
			<path fill="#020100" d="M1858.75,564.205c1.42,7.301,0.38,13.648-2.33,14.176c-2.71,0.529-6.06-4.962-7.48-12.262
				c-1.43-7.3-0.39-13.646,2.33-14.175C1853.98,551.415,1857.33,556.906,1858.75,564.205"/>
		</g>
		<g>
			<path fill="#020100" d="M2177.18,584.543c-1.59,8.132-0.68,15.151,2.03,15.68c2.71,0.529,6.2-5.635,7.78-13.766
				c1.59-8.132,0.68-15.151-2.03-15.68C2182.25,570.248,2178.76,576.412,2177.18,584.543"/>
		</g>
		<g>
			<path fill="#020100" d="M2159.15,573.641c-1.5,7.725-0.53,14.416,2.18,14.944c2.71,0.529,6.13-5.306,7.64-13.03
				c1.51-7.725,0.53-14.415-2.18-14.944C2164.08,560.082,2160.66,565.917,2159.15,573.641"/>
		</g>
		<g>
			<path fill="#020100" d="M2140.83,564.205c-1.42,7.301-0.38,13.648,2.33,14.176c2.72,0.529,6.06-4.962,7.49-12.262
				c1.42-7.3,0.38-13.646-2.33-14.175C2145.61,551.415,2142.26,556.906,2140.83,564.205"/>
		</g>
		<g>
			<path fill="#020100" d="M1961.818,694.888c-0.248,0-0.499-0.062-0.73-0.19c-0.723-0.404-0.982-1.318-0.578-2.041
				c4.809-8.607,11.683-12.011,18.33-15.303c10.426-5.163,19.43-9.622,19.43-33.354c0-0.828,0.671-1.5,1.5-1.5
				c0.078,0,0.155,0.006,0.23,0.018c0.874-0.135,1.73,0.576,1.73,1.482c0,23.731,9.004,28.19,19.43,33.354
				c6.647,3.292,13.521,6.695,18.329,15.303c0.404,0.723,0.146,1.637-0.578,2.041c-0.721,0.402-1.637,0.146-2.041-0.578
				c-4.354-7.795-10.804-10.988-17.041-14.077c-8.234-4.078-16.692-8.268-19.829-22.626c-3.136,14.358-11.594,18.548-19.829,22.626
				c-6.237,3.089-12.687,6.282-17.042,14.077C1962.854,694.611,1962.344,694.888,1961.818,694.888z M1914.999,679.777
				c-0.303,0-0.608-0.091-0.873-0.281c-0.673-0.483-0.827-1.421-0.344-2.094c10.096-14.064,23.286-21.866,36.041-29.41
				c24.915-14.736,48.448-28.656,48.448-86.992c0-0.828,0.671-1.5,1.5-1.5c0.078,0,0.155,0.006,0.23,0.018
				c0.874-0.137,1.73,0.576,1.73,1.482c0,58.336,23.533,72.256,48.447,86.992c12.756,7.544,25.945,15.346,36.041,29.41
				c0.482,0.673,0.329,1.61-0.344,2.094c-0.673,0.482-1.61,0.33-2.094-0.344c-9.728-13.553-22.642-21.191-35.131-28.578
				c-21.298-12.598-43.225-25.569-48.65-68.02c-5.425,42.451-27.353,55.422-48.65,68.02c-12.489,7.387-25.403,15.025-35.131,28.578
				C1915.926,679.561,1915.465,679.777,1914.999,679.777z M2145.851,663.201c-0.491,0-0.972-0.241-1.26-0.684
				c-9.303-14.341-26.489-24.383-46.391-36.011c-40.362-23.583-89.714-52.426-98.2-133.603
				c-8.486,81.177-57.838,110.02-98.2,133.603c-19.901,11.628-37.088,21.67-46.392,36.011c-0.45,0.694-1.379,0.893-2.075,0.442
				c-0.695-0.451-0.893-1.38-0.442-2.075c9.691-14.938,27.164-25.147,47.395-36.969c43.654-25.506,97.983-57.249,97.983-156.416
				c0-0.828,0.671-1.5,1.5-1.5c0.078,0,0.155,0.006,0.23,0.018c0.874-0.133,1.73,0.576,1.73,1.482
				c0,99.166,54.329,130.91,97.982,156.416c20.231,11.821,37.704,22.03,47.396,36.969c0.45,0.695,0.253,1.624-0.442,2.075
				C2146.414,663.123,2146.131,663.201,2145.851,663.201z M2187.769,623.02c-0.318,0-0.639-0.101-0.91-0.309
				c-18.521-14.168-37.623-22.74-56.096-31.031c-54.727-24.561-106.471-47.783-130.763-209.8
				c-24.292,162.017-76.036,185.239-130.763,209.8c-18.473,8.291-37.575,16.863-56.096,31.031c-0.657,0.504-1.599,0.38-2.103-0.28
				c-0.503-0.658-0.378-1.6,0.28-2.103c18.798-14.379,38.061-23.024,56.69-31.385c54.91-24.644,106.776-47.921,130.276-216.151
				c0.115-0.82,0.878-1.387,1.693-1.277c0.017,0.002,0.03,0.001,0.046,0c0.814-0.114,1.578,0.457,1.692,1.277
				c23.5,168.23,75.365,191.508,130.275,216.151c18.629,8.36,37.893,17.006,56.689,31.385c0.658,0.503,0.783,1.444,0.28,2.103
				C2188.666,622.817,2188.22,623.02,2187.769,623.02z"/>
		</g>
		<g>
			<path fill="#020100" d="M2000.502,725.667c-0.168,0-0.336-0.014-0.502-0.042c-0.776,0.132-1.6-0.041-2.281-0.544
				c-0.878-0.647-1.3-1.682-1.207-2.694c-21.063-26.676-55.059-34.273-87.963-41.628c-54.104-12.093-110.05-24.598-110.05-120.425
				c0-0.931,0.432-1.808,1.168-2.376c20.343-15.681,40.767-24.761,60.519-33.541c58.807-26.142,109.651-48.758,136.779-230.357
				c-0.146-0.982-0.291-1.971-0.436-2.96c-0.239-1.64,0.896-3.162,2.536-3.401c0.317-0.046,0.631-0.041,0.933,0.01
				c0.302-0.051,0.615-0.057,0.933-0.01c1.64,0.239,2.775,1.762,2.536,3.401c-0.145,0.99-0.29,1.978-0.436,2.96
				c27.128,181.599,77.973,204.215,136.779,230.357c19.752,8.78,40.176,17.86,60.519,33.541c0.737,0.568,1.169,1.445,1.169,2.376
				c0,95.827-55.946,108.332-110.05,120.425c-32.904,7.354-66.899,14.952-87.963,41.628c0.094,1.013-0.329,2.047-1.206,2.694
				C2001.745,725.477,2001.121,725.667,2000.502,725.667z M1804.504,561.813c0.552,89.669,51.467,101.046,105.354,113.09
				c33.331,7.45,67.747,15.142,90.141,42.251c22.395-27.109,56.811-34.801,90.142-42.251
				c53.887-12.044,104.803-23.421,105.354-113.09c-19.395-14.698-39.075-23.447-58.12-31.914
				c-29.832-13.261-58.01-25.787-82.521-58.943c-24.866-33.636-42.463-84.087-54.854-157.715
				c-12.39,73.628-29.987,124.079-54.854,157.715c-24.512,33.156-52.689,45.683-82.521,58.943
				C1843.58,538.366,1823.899,547.115,1804.504,561.813z"/>
		</g>
		<g>
			<path fill="#020100" d="M2005,729c0,2.75-2.25,5-5,5s-5-2.25-5-5V213c0-2.75,2.25-5,5-5s5,2.25,5,5V729"/>
		</g>
		<g>
			<path fill="#020100" d="M1687.57,159.531c2.97,4.803,4.91,9.758,5.81,14.864c0.91,5.108,0.98,10.113,0.2,15.016
				c-0.78,4.906-2.26,9.624-4.45,14.156c-2.19,4.536-4.83,8.651-7.91,12.352c-2.28,2.785-4.74,5.208-7.4,7.267
				c-2.66,2.058-5.48,4.008-8.46,5.849c-2.71,1.675-5.49,3.043-8.32,4.106c-2.84,1.061-5.85,1.953-9.02,2.671
				c-0.49,0.022-0.9,0.066-1.23,0.135c-0.33,0.067-0.68,0.008-1.05-0.181c-0.52-0.232-1.48-1.19-2.9-2.875
				c-1.41-1.683-2.9-3.529-4.45-5.543c-1.56-2.01-3.01-3.95-4.35-5.818c-1.34-1.867-2.22-3.15-2.66-3.851
				c-0.49-0.8-0.64-1.436-0.43-1.911c0.21-0.471,0.67-0.932,1.4-1.38c1.08-0.67,1.84-1.104,2.28-1.306
				c0.44-0.2,0.99,0.249,1.67,1.349c3.34,5.403,7.25,8.797,11.72,10.179c4.48,1.383,9.2,0.54,14.17-2.53
				c3.61-2.232,6.85-5.271,9.72-9.116c2.86-3.845,5.02-8.081,6.47-12.707c1.44-4.627,2.02-9.405,1.72-14.335
				c-0.3-4.928-1.81-9.595-4.53-13.999c-1.61-2.6-3.7-4.768-6.26-6.499c-2.57-1.731-5.27-2.555-8.08-2.473
				c-1.37,0.015-3,0.298-4.91,0.852c-1.9,0.555-3.88,1.191-5.93,1.906c-2.06,0.718-4.06,1.468-6.01,2.256
				c-1.94,0.789-3.52,1.419-4.73,1.887c-6.46,2.473-12.56,2.854-18.29,1.144c-5.74-1.709-10.68-5.915-14.82-12.619
				c-3.46-5.602-5.45-11.287-5.95-17.059c-0.51-5.768,0.11-11.271,1.87-16.505c1.76-5.233,4.43-10.06,8-14.48
				c3.57-4.417,7.66-8.053,12.27-10.899c0.45-0.279,1.42-0.839,2.89-1.683c1.48-0.84,3.06-1.611,4.75-2.312
				c1.69-0.698,3.29-1.2,4.78-1.503c1.5-0.303,2.5-0.054,2.99,0.746c0.25,0.401,0.64,1.131,1.17,2.184
				c0.52,1.058,1.06,2.178,1.6,3.362c0.55,1.185,0.97,2.273,1.27,3.261c0.3,0.991,0.31,1.568,0.04,1.736
				c-0.45,0.28-1.08,0.465-1.9,0.554c-3.24,0.621-6.52,1.574-9.84,2.865c-3.32,1.293-6.34,2.774-9.05,4.448
				c-2.62,1.62-5.01,3.653-7.18,6.099c-2.17,2.448-3.88,5.193-5.11,8.239c-1.24,3.046-1.8,6.228-1.69,9.544
				c0.11,3.318,1.19,6.625,3.23,9.927c1.86,3.001,3.94,5.066,6.26,6.19c2.32,1.128,4.8,1.703,7.44,1.731
				c2.63,0.029,5.34-0.434,8.12-1.392c2.78-0.956,5.54-2,8.27-3.137c2.73-1.133,5.34-2.264,7.83-3.387s4.74-1.963,6.77-2.524
				c6.47-1.646,12.5-1.085,18.08,1.686C1679.03,148.841,1683.74,153.329,1687.57,159.531"/>
		</g>
		<g>
			<path fill="#020100" d="M1756.94,93.721c0.09,0.218-0.05,0.954-0.43,2.207c-0.39,1.257-0.83,2.637-1.33,4.136
				c-0.51,1.503-0.99,2.928-1.44,4.28c-0.46,1.352-0.76,2.253-0.91,2.704c-0.2,0.601-0.37,1.153-0.5,1.657
				c-0.12,0.506-0.27,1.113-0.42,1.82c3.46,1.833,6.51,4.544,9.17,8.13c2.66,3.59,4.79,7.219,6.38,10.884
				c2.39,5.502,3.75,10.877,4.06,16.127c0.31,5.25-0.34,10.149-1.95,14.696c-1.61,4.548-4.08,8.6-7.4,12.157
				c-3.31,3.557-7.45,6.415-12.42,8.573c-3.51,1.523-6.99,2.428-10.46,2.716c-3.46,0.288-7.07-0.42-10.82-2.126
				c-0.3,0.901-0.65,2.108-1.03,3.622c-0.38,1.513-0.87,3.069-1.44,4.667c-0.59,1.598-1.23,3.035-1.95,4.309
				c-0.72,1.275-1.52,2.102-2.4,2.483c-0.39,0.169-0.92,0.272-1.6,0.311c-0.68,0.037-1.16-0.266-1.44-0.914
				c-0.14-0.323,0.01-1.318,0.44-2.98c0.44-1.664,0.96-3.46,1.57-5.393c0.61-1.929,1.2-3.759,1.78-5.487
				c0.58-1.725,0.97-2.89,1.18-3.492c-3.17-2.214-5.98-4.967-8.45-8.254c-2.47-3.285-4.5-6.762-6.1-10.431
				c-2.2-5.068-3.58-10.176-4.14-15.32c-0.56-5.143-0.27-10.011,0.86-14.607c1.13-4.593,3.15-8.74,6.06-12.441
				c2.91-3.698,6.79-6.607,11.66-8.724c3.7-1.607,7.42-2.579,11.15-2.92c3.73-0.338,7.62,0.151,11.67,1.47
				c0.81-2.4,1.57-4.783,2.28-7.145c0.71-2.359,1.47-4.741,2.28-7.145c0.1-0.557,0.44-0.965,1.03-1.219
				c0.19-0.084,0.57-0.085,1.12-0.008c0.56,0.08,1.11,0.225,1.67,0.432c0.55,0.21,1.06,0.438,1.51,0.688
				C1756.64,93.436,1756.89,93.615,1756.94,93.721 M1741.81,121.259c-3.17-1.956-6.29-3.291-9.38-4.002
				c-3.09-0.709-6.33-0.325-9.74,1.156c-2.92,1.27-5.17,2.954-6.75,5.049c-1.58,2.099-2.64,4.451-3.19,7.058
				c-0.54,2.611-0.56,5.374-0.04,8.29c0.51,2.921,1.4,5.833,2.67,8.745c3.05,7.014,7.35,12.647,12.9,16.899
				c0.05-0.407,0.3-1.313,0.73-2.72c0.43-1.405,0.91-2.96,1.44-4.667c0.53-1.705,1.05-3.309,1.56-4.812
				c0.5-1.499,0.86-2.552,1.06-3.154c0.86-2.809,1.74-5.594,2.62-8.352c0.89-2.757,1.74-5.594,2.55-8.514
				c0.61-1.803,1.25-3.587,1.93-5.358C1740.85,125.11,1741.4,123.237,1741.81,121.259z M1760.6,142.91
				c-1.5-3.451-3.45-6.675-5.86-9.671c-2.4-2.995-4.98-5.685-7.76-8.071c-2.47,7.102-4.84,14.16-7.12,21.175
				c-2.28,7.018-4.58,14.108-6.91,21.274c3.03,1.637,6.21,2.756,9.54,3.358c3.33,0.606,6.55,0.231,9.67-1.124
				c5.26-2.285,8.6-5.916,10.03-10.897C1763.61,153.977,1763.08,148.629,1760.6,142.91z"/>
		</g>
		<g>
			<path fill="#020100" d="M1812.01,146.318c0.81-0.26,1.66-0.655,2.55-1.19c0.88-0.533,1.69-1.04,2.43-1.527
				c0.17-0.175,0.36-0.361,0.58-0.556c0.21-0.191,0.42-0.322,0.62-0.388c0.71-0.227,1.27-0.038,1.69,0.568
				c0.42,0.607,0.72,1.191,0.9,1.75c0.25,0.784,0.11,1.386-0.42,1.804c-0.53,0.421-1.02,0.823-1.45,1.209
				c-0.07,0.145-0.28,0.366-0.62,0.664c-0.36,0.298-0.72,0.633-1.1,1.003c-0.39,0.372-0.78,0.713-1.18,1.027
				c-0.4,0.315-0.65,0.489-0.75,0.521c-2.54,2.178-4.68,4.257-6.44,6.244c-1.76,1.987-3.66,4.3-5.71,6.938
				c-0.34,0.354-0.63,0.728-0.9,1.122c-0.26,0.393-0.65,0.673-1.15,0.835c-1.52,0.489-2.53-0.051-3.03-1.618
				c-0.29-0.897-0.46-1.768-0.51-2.616c-0.05-0.849-0.12-1.754-0.21-2.714c-0.23-1.408-0.52-2.826-0.87-4.26
				c-0.35-1.431-0.64-2.852-0.87-4.261c-0.97-4.751-2.16-9.495-3.58-14.229c-1.41-4.734-2.88-9.452-4.39-14.153
				c-2.27-7.052-4.5-14.121-6.67-21.206c-2.17-7.084-4.39-14.153-6.66-21.205c-0.22-0.672-0.91-2.733-2.08-6.188
				c-1.17-3.452-2.43-7.187-3.78-11.201c-1.35-4.013-2.6-7.654-3.77-10.925c-1.16-3.268-1.85-5.055-2.06-5.359l-0.22-0.672
				c-0.18-0.559,0.02-1.084,0.58-1.577c0.57-0.489,0.99-0.841,1.25-1.051l10.4-6.686c1-0.694,1.96-1.464,2.85-2.31
				c0.9-0.846,1.91-1.447,3.02-1.806c0.61-0.196,1.09-0.073,1.46,0.365c0.36,0.439,0.63,0.939,0.81,1.497
				c0.18,0.562,0.02,1.172-0.49,1.829c-0.52,0.661-1.09,1.492-1.71,2.496c-0.63,1.006-1.17,2.262-1.63,3.768
				c-0.46,1.511-0.57,3.336-0.33,5.48c0.17,1.554,0.51,3.39,1.03,5.51c0.51,2.121,1.08,4.316,1.7,6.586
				c0.62,2.273,1.26,4.507,1.91,6.706c0.65,2.199,1.23,4.083,1.74,5.649c1.92,6.672,3.88,13.269,5.87,19.792
				c1.99,6.526,4.05,13.09,6.18,19.694l8.6,26.698c0.29,0.897,0.59,1.729,0.89,2.494c0.3,0.768,0.6,1.599,0.89,2.494
				c0.32,1.007,0.77,1.882,1.34,2.624c0.58,0.742,1.42,0.934,2.53,0.575L1812.01,146.318"/>
		</g>
		<g>
			<path fill="#020100" d="M1884.94,64.887c0.26,1.15,0.15,3.13-0.31,5.943c-0.47,2.813-1.17,6.04-2.1,9.679
				c-0.93,3.64-1.97,7.454-3.09,11.436c-1.14,3.986-2.27,7.82-3.41,11.506c-1.14,3.685-2.16,6.954-3.05,9.8
				c-0.89,2.849-1.52,4.916-1.89,6.2c-0.13,0.391-0.55,1.689-1.26,3.892c-0.71,2.207-1.5,4.641-2.38,7.303
				c-0.88,2.665-1.72,5.111-2.53,7.338c-0.81,2.229-1.4,3.5-1.77,3.823c-0.44,0.46-1.01,0.948-1.71,1.464
				c-0.7,0.517-1.46,1.016-2.28,1.499c-0.82,0.48-1.62,0.928-2.39,1.343c-0.78,0.413-1.43,0.677-1.95,0.792
				c-0.62,0.138-1.29-0.317-2.01-1.361c-0.72-1.045-1.25-1.829-1.59-2.359c-3.29-5.053-6.61-10.069-9.94-15.054
				c-3.33-4.981-6.46-10.16-9.39-15.536c-1.83-3.328-3.57-6.646-5.23-9.955c-1.65-3.306-3.19-6.671-4.6-10.093
				c-0.43-0.987-0.84-1.981-1.23-2.98c-0.38-0.999-0.79-1.992-1.23-2.98c-1.25,0.759-2.55,1.621-3.91,2.584
				c-1.37,0.965-2.77,1.606-4.22,1.929c-0.52,0.114-0.95,0.001-1.3-0.345c-0.35-0.344-0.59-0.802-0.72-1.378
				c-0.2-0.917-0.16-1.59,0.13-2.015c0.29-0.425,0.75-0.89,1.4-1.395c1.51-1.056,3.03-2.053,4.56-2.997
				c1.53-0.94,3.06-1.881,4.59-2.824c1.33-0.895,2.64-1.849,3.94-2.859c1.3-1.011,2.61-1.962,3.93-2.86
				c0.36-0.319,0.92-0.772,1.66-1.36c0.74-0.584,1.37-0.936,1.89-1.051c0.62-0.137,1.16,0.104,1.62,0.724
				c0.47,0.62,0.76,1.218,0.89,1.791c0.15,0.689,0.09,1.246-0.2,1.671c-0.29,0.425-0.59,0.915-0.9,1.464
				c-0.31,0.552-0.56,1.271-0.75,2.152c-0.18,0.886-0.1,2.131,0.26,3.738c0.61,2.756,1.88,6.27,3.8,10.541
				c1.93,4.272,4.12,8.664,6.59,13.176c2.47,4.513,4.97,8.809,7.51,12.884c2.53,4.077,4.66,7.309,6.38,9.697
				c0.29,0.298,0.71,0.868,1.28,1.705c0.57,0.84,1.06,1.212,1.47,1.119c0.21-0.045,0.44-0.337,0.7-0.878
				c0.26-0.538,0.51-1.134,0.75-1.791c0.23-0.653,0.45-1.301,0.63-1.946c0.18-0.642,0.3-1.089,0.35-1.344
				c0.32-1.032,0.63-2.094,0.93-3.186c0.3-1.089,0.61-2.151,0.92-3.186c1.82-6.062,3.5-12.216,5.05-18.464
				c1.55-6.245,2.69-12.64,3.42-19.187c0.11-0.986,0.26-2.135,0.46-3.444c0.2-1.31,0.2-2.421-0.01-3.342
				c-0.23-1.033-0.66-1.751-1.29-2.153c-0.63-0.401-1.34-0.635-2.11-0.706c-0.78-0.068-1.58-0.011-2.41,0.172
				c-0.83,0.184-1.61,0.356-2.33,0.517c-0.42,0.092-0.82,0.151-1.19,0.172c-0.38,0.024-0.77,0.081-1.19,0.172
				c-0.72,0.161-1.14-0.017-1.26-0.534c-0.11-0.517-0.23-1.06-0.36-1.636c-0.18-0.802-0.26-1.416-0.24-1.843
				c0.01-0.423,0.44-0.67,1.3-0.741c1.84-0.526,3.69-0.998,5.56-1.412c1.87-0.413,3.71-0.939,5.52-1.584
				c1.63-0.48,3.22-1.044,4.77-1.688c1.54-0.641,3.14-1.148,4.8-1.516C1883.72,62.809,1884.61,63.397,1884.94,64.887"/>
		</g>
		<g>
			<path fill="#020100" d="M1957.6,102.923c0.51,4.913-0.22,9.218-2.18,12.91c-1.96,3.694-4.57,6.805-7.83,9.333
				c-3.26,2.531-6.92,4.508-10.99,5.94c-4.07,1.429-7.95,2.34-11.64,2.727c-6.65,0.696-13.31,0.329-19.98-1.102
				c-0.65-0.166-1.06-0.27-1.23-0.314c-0.16-0.041-0.39-0.403-0.67-1.082c-0.31-0.913-0.59-2.245-0.82-3.995
				c-0.24-1.748-0.41-3.089-0.5-4.026c-0.1-0.935-0.18-1.933-0.24-2.992c-0.05-1.058-0.08-2.058-0.07-3.007
				c-0.01-1.064,0.04-1.925,0.13-2.585c0.09-0.659,0.66-1.046,1.72-1.156c0.95-0.1,1.58,0.1,1.9,0.599
				c0.32,0.499,0.58,1.211,0.79,2.135c0.31,0.915,0.56,1.803,0.76,2.669c0.19,0.867,0.5,1.752,0.92,2.654
				c1.38,3.047,3.46,4.753,6.22,5.113c2.76,0.362,5.46,0.404,8.1,0.127c2.11-0.22,4.53-0.799,7.26-1.736
				c2.73-0.934,5.3-2.178,7.7-3.732c2.4-1.551,4.36-3.472,5.88-5.76c1.52-2.288,2.13-4.95,1.81-7.993c-0.2-1.87-0.8-3.257-1.8-4.158
				c-1-0.899-2.19-1.514-3.55-1.845c-1.38-0.328-2.83-0.472-4.37-0.43c-1.55,0.046-2.9,0.126-4.06,0.248
				c-2.13,0.106-4.23,0.176-6.3,0.216c-2.08,0.041-4.21-0.119-6.38-0.485c-3.69-0.559-6.9-2.173-9.64-4.844
				c-2.73-2.668-4.32-6.111-4.76-10.322c-0.42-3.975-0.01-7.742,1.22-11.302c1.23-3.557,2.99-6.637,5.28-9.244
				c2.29-2.604,5-4.75,8.13-6.438c3.13-1.687,6.44-2.715,9.93-3.08c2.32-0.243,4.67-0.25,7.04-0.027c2.37,0.225,4.7,0.571,7,1.041
				c1.21,0.347,1.9,1.339,2.07,2.976c0.05,0.468,0.04,1.121-0.04,1.954c-0.07,0.837-0.17,1.646-0.3,2.427
				c-0.14,0.784-0.38,1.489-0.74,2.117c-0.36,0.631-0.76,0.966-1.18,1.01c-0.53,0.056-1.04-0.007-1.54-0.193
				c-0.5-0.183-1.03-0.364-1.58-0.544c-1-0.367-2.15-0.662-3.45-0.88c-1.31-0.218-2.69-0.398-4.14-0.543
				c-1.46-0.141-2.85-0.203-4.19-0.182c-1.33,0.023-2.52,0.087-3.58,0.197c-1.58,0.166-3.09,0.562-4.52,1.183
				c-1.43,0.624-2.7,1.497-3.81,2.616c-1.11,1.122-1.96,2.423-2.55,3.904c-0.6,1.481-0.79,3.159-0.6,5.028
				c0.27,2.575,1.11,4.496,2.53,5.767c1.41,1.271,3.21,2.147,5.4,2.627c2.18,0.481,4.58,0.734,7.2,0.753
				c2.62,0.023,5.26,0.013,7.93-0.031c2.66-0.04,5.2,0.018,7.62,0.177c2.42,0.163,4.53,0.68,6.33,1.555
				c2.48,1.278,4.42,3.234,5.82,5.865C1956.46,97.397,1957.3,100.116,1957.6,102.923"/>
		</g>
		<g>
			<path fill="#020100" d="M1990.37,88.204c0.74,0.247,1.48,0.373,2.22,0.384c0.74,0.01,1.49,0.021,2.23,0.031
				c1.81,0.025,3.32-0.161,4.55-0.557c1.22-0.396,2.32-0.971,3.29-1.727c0.97-0.755,1.83-1.689,2.59-2.803
				c0.75-1.111,1.62-2.431,2.6-3.955c0.76-1.17,1.41-2.255,1.96-3.254c0.54-0.995,1.09-2.14,1.64-3.433
				c0.55-1.294,1.23-2.792,2.05-4.495s1.24-3.264,1.26-4.683c0.02-1.535-0.34-2.516-1.07-2.94c-0.74-0.424-1.53-0.672-2.38-0.745
				c-0.85-0.069-1.65-0.168-2.39-0.297c-0.74-0.129-1.1-0.785-1.08-1.967c0.02-1.772,0.99-2.647,2.9-2.62
				c3.61,0.05,7.33-0.074,11.16-0.373c0.85-0.104,1.64-0.212,2.39-0.32c0.74-0.105,1.54-0.155,2.39-0.143
				c0.74,0.011,1.24,0.282,1.5,0.815c0.26,0.533,0.39,1.152,0.37,1.858c0,0.589-0.5,1.845-1.48,3.772
				c-0.98,1.927-2.07,3.941-3.27,6.041c-1.2,2.101-2.4,4.085-3.59,5.949c-1.19,1.866-2.01,3.09-2.44,3.671
				c-0.97,1.281-2.33,2.966-4.05,5.059c-1.73,2.094-3.03,3.84-3.9,5.239c0.63,0.951,1.3,1.871,2.03,2.763s1.52,1.816,2.36,2.767
				c3.65,4.17,7.31,8.337,10.97,12.503c3.66,4.17,7.53,8.105,11.62,11.807c1.37,1.196,2.68,2.419,3.93,3.671
				c1.26,1.253,2.62,2.419,4.1,3.498c0.31,0.242,0.76,0.57,1.34,0.989c0.57,0.422,0.86,0.924,0.85,1.511
				c-0.01,0.59-0.36,1.112-1.06,1.574c-0.69,0.459-1.5,0.831-2.4,1.113c-0.91,0.28-1.81,0.474-2.72,0.579
				c-0.9,0.104-1.57,0.155-1.99,0.149c-2.55-0.035-4.98-0.659-7.3-1.866c-2.32-1.207-4.53-2.737-6.63-4.592
				c-2.1-1.851-4.08-3.85-5.97-5.993c-1.88-2.143-3.6-4.166-5.17-6.071c-1.88-2.143-3.74-4.286-5.56-6.429
				c-1.83-2.142-3.74-4.344-5.72-6.608c-0.74-0.831-1.42-1.607-2.04-2.321c-0.63-0.715-1.37-1.37-2.21-1.972
				c-1.38,0.099-2.73,0.139-4.06,0.12c-1.33-0.019-2.68,0.023-4.06,0.12c-0.26,2.938-0.4,5.846-0.44,8.727
				c-0.04,2.882-0.14,5.792-0.28,8.729c-0.03,1.529-0.1,3.028-0.23,4.496c-0.12,1.47-0.2,2.908-0.22,4.319
				c-0.01,0.824-0.04,1.441-0.1,1.851c-0.06,0.413-0.15,0.704-0.25,0.879c-0.11,0.174-0.33,0.348-0.65,0.52
				c-0.32,0.172-0.8,0.49-1.44,0.95c-0.65,0.463-1.27,0.865-1.85,1.209c-0.59,0.345-1.15,0.69-1.69,1.035
				c-0.22,0.113-0.56,0.315-1.04,0.603c-0.49,0.286-0.99,0.574-1.53,0.861c-0.54,0.285-1.02,0.543-1.44,0.774
				c-0.43,0.228-0.7,0.343-0.8,0.342c-0.96-0.014-1.46-0.404-1.5-1.168c-0.05-0.767-0.06-1.619-0.05-2.559
				c0.04-2.585,0.1-5.143,0.19-7.672c0.09-2.527,0.2-5.025,0.34-7.493c0.32-7.169,0.63-14.31,0.94-21.423
				c0.31-7.111,0.62-14.252,0.94-21.423c0.33-8.817,0.72-17.633,1.16-26.448c0.44-8.815,0.73-17.633,0.85-26.452
				c0.01-1.059-0.03-2.118-0.12-3.177c-0.09-1.06-0.13-2.12-0.11-3.178c0.02-1.527,0.56-2.286,1.62-2.271
				c0.32,0.005,1.07-0.161,2.24-0.498c1.17-0.337,2.43-0.699,3.76-1.094c1.33-0.393,2.58-0.786,3.76-1.183
				c1.17-0.394,1.92-0.649,2.24-0.762c0.32-0.112,0.77-0.282,1.36-0.511c0.59-0.226,1.25-0.451,2-0.677
				c0.75-0.224,1.44-0.449,2.08-0.677c0.64-0.226,1.12-0.337,1.44-0.333c1.17,0.016,1.74,0.733,1.72,2.146
				c-0.01,1.062-0.61,1.938-1.79,2.628c-1.18,0.689-2.19,1.323-3.05,1.901c-1.93,1.268-3.12,3.079-3.58,5.43s-0.81,4.703-1.05,7.056
				c-0.64,7.181-1.05,14.337-1.26,21.463c-0.21,7.125-0.46,14.281-0.78,21.466c-0.16,4.006-0.37,8.009-0.64,12.013
				c-0.27,4.004-0.43,8.008-0.49,12.012L1990.37,88.204"/>
		</g>
		<g>
			<path fill="#020100" d="M2117.69,133.768c-0.07,0.586-0.81,1.142-2.22,1.675c-1.41,0.532-2.96,0.984-4.67,1.362
				c-1.71,0.375-3.37,0.639-4.99,0.788c-1.63,0.149-2.76,0.184-3.39,0.103c-3.47-0.441-6.17-1.792-8.07-4.049
				c-1.91-2.257-3.22-5.21-3.94-8.857c-0.07-0.246-0.17-0.762-0.28-1.548c-0.12-0.785-0.26-1.306-0.44-1.568
				c-0.92,0.478-1.74,1.024-2.46,1.644c-3.85,2.476-8.04,4.7-12.57,6.672s-9.06,2.671-13.59,2.096c-1.9-0.241-3.76-0.714-5.6-1.42
				s-3.4-1.644-4.7-2.812c-1.3-1.168-2.29-2.652-2.97-4.45c-0.68-1.798-0.86-3.92-0.55-6.362c0.57-4.531,2.38-8.433,5.42-11.709
				s6.56-5.957,10.57-8.048c4.01-2.088,8.23-3.708,12.66-4.857c4.43-1.149,8.37-1.859,11.83-2.128c1.3-0.072,2.59-0.174,3.89-0.303
				c1.3-0.129,2.55-0.295,3.76-0.498c0.36-2.825,0.51-5.468,0.45-7.926c-0.07-2.459-0.51-4.669-1.33-6.626
				c-0.82-1.958-2.09-3.556-3.81-4.791c-1.71-1.234-3.99-2.033-6.84-2.394c-1.16-0.148-2.36-0.151-3.61-0.014
				c-1.25,0.138-2.48,0.338-3.69,0.598c-1.21,0.263-2.33,0.475-3.37,0.638c-1.04,0.166-1.87,0.207-2.5,0.126
				c-0.53-0.066-0.73-0.564-0.62-1.5c0.17-1.282,0.69-2.847,1.56-4.692c0.88-1.845,1.79-3.121,2.74-3.831
				c0.69-0.385,1.85-0.682,3.48-0.892c1.63-0.206,3.38-0.281,5.25-0.222c1.86,0.059,3.65,0.138,5.35,0.235
				c1.7,0.099,2.97,0.2,3.81,0.307c4.85,0.615,8.48,1.73,10.9,3.341c2.41,1.613,4.07,3.718,4.97,6.322
				c0.9,2.604,1.23,5.7,0.99,9.284c-0.24,3.587-0.65,7.653-1.23,12.203c-0.41,3.268-0.91,6.526-1.48,9.77
				c-0.57,3.248-1.07,6.563-1.5,9.946c-0.27,2.099-0.39,4.307-0.36,6.622c0.02,2.316,0.36,4.465,1.02,6.443
				c0.66,1.982,1.64,3.707,2.96,5.178c1.31,1.472,3.11,2.47,5.4,2.997c0.93,0.239,1.84,0.473,2.72,0.702
				C2117.52,131.554,2117.87,132.368,2117.69,133.768 M2094.69,94.924c-2.38,0.173-4.7,0.38-6.98,0.624
				c-2.28,0.244-4.53,0.7-6.76,1.365c-1.77,0.486-3.71,1.217-5.82,2.195c-2.1,0.977-4.1,2.146-5.98,3.507
				c-1.89,1.361-3.51,2.964-4.87,4.806c-1.36,1.844-2.18,3.931-2.48,6.264c-0.34,2.685,0.33,4.963,2.02,6.837
				c1.69,1.876,3.69,2.958,6.01,3.253c2.53,0.321,5.05,0.049,7.57-0.817c2.52-0.864,4.79-2.117,6.82-3.757
				c2.97-2.348,5.1-4.981,6.38-7.903c1.28-2.918,2.32-6.224,3.11-9.919c0.09-0.7,0.28-1.77,0.57-3.217
				C2094.57,96.717,2094.71,95.637,2094.69,94.924z"/>
		</g>
		<g>
			<path fill="#020100" d="M2141.55,86.842c0.3-1.257,0.57-2.552,0.83-3.881c0.26-1.327,0.54-2.621,0.84-3.881
				c-0.16-0.278-0.31-0.435-0.47-0.472c-0.15-0.036-0.32-0.136-0.5-0.299c-0.31-0.074-0.73-0.142-1.26-0.207
				c-0.53-0.063-1.04-0.215-1.53-0.451c-0.49-0.235-0.92-0.49-1.29-0.759c-0.38-0.269-0.49-0.688-0.36-1.262
				c0.06-0.229,0.24-0.548,0.56-0.958c0.05-0.228,0.69-0.769,1.93-1.626c1.24-0.855,2.75-1.828,4.54-2.918
				c1.78-1.089,3.72-2.263,5.82-3.521c2.09-1.256,4.07-2.453,5.92-3.588c1.85-1.134,3.4-2.066,4.67-2.796
				c1.26-0.728,2.02-1.182,2.28-1.364c0.26-0.18,0.65-0.42,1.16-0.725c0.5-0.303,0.91-0.418,1.22-0.345
				c0.31,0.073,0.58,0.318,0.81,0.735c0.23,0.416,0.29,0.855,0.18,1.311c-0.05,0.231-0.16,0.446-0.32,0.65
				c-1.34,1.98-2.72,4.041-4.15,6.179c-1.43,2.14-2.43,4.411-3,6.815l0.11,0.208c2.38,0.561,4.79,1.1,7.23,1.614
				c2.44,0.517,4.85,1.054,7.23,1.615l8.53,2.011c0.41,0.097,0.64,0.395,0.69,0.888c0.05,0.495,0.03,1.034-0.06,1.618
				c-0.08,0.586-0.22,1.158-0.4,1.717c-0.19,0.562-0.31,0.956-0.36,1.184c-0.33,1.374-0.81,2.017-1.44,1.927
				c-0.63-0.088-1.52-0.268-2.65-0.536c-1.66-0.39-3.3-0.715-4.93-0.98c-1.63-0.263-3.27-0.591-4.92-0.98l-10.23-2.414
				c-0.24,0.067-0.48,0.068-0.74,0.008c-0.26-0.062-0.56-0.069-0.89-0.03c-0.51,1.212-0.91,2.354-1.22,3.428
				c-0.31,1.077-0.61,2.244-0.91,3.502c-0.7,2.495-1.44,4.948-2.23,7.359c-0.79,2.414-1.47,4.88-2.07,7.396
				c-0.73,3.091-1.52,6.56-2.37,10.406c-0.85,3.849-1.22,7.357-1.09,10.527c0.04,3.997,1.09,7.389,3.16,10.172
				c2.07,2.784,4.92,4.602,8.53,5.456c0.73,0.17,1.63,0.292,2.7,0.364c1.07,0.071,2.19,0.094,3.34,0.063
				c1.15-0.029,2.29-0.122,3.42-0.281c1.13-0.156,2.04-0.334,2.74-0.531c0.6-0.222,1.01-0.335,1.23-0.345
				c0.22-0.007,0.6-0.008,1.15-0.002c0.1,0.024,0.18,0.016,0.25-0.03c0.06-0.045,0.15-0.056,0.25-0.032
				c0.52,0.122,0.8,0.551,0.85,1.287c0.04,0.735,0.01,1.334-0.1,1.79c-0.08,0.343-0.27,0.691-0.57,1.043
				c-0.31,0.353-0.69,0.594-1.16,0.725c-2.31,0.542-4.61,1.177-6.91,1.903c-2.3,0.727-4.64,1.293-7.03,1.696
				c-2.02,0.248-3.78,0.314-5.28,0.203c-1.5-0.113-3.29-0.412-5.35-0.9c-4.86-1.146-8.93-3.315-12.22-6.505
				c-0.25-0.301-0.77-0.785-1.54-1.451c-0.77-0.663-1.23-1.134-1.38-1.414c-0.51-0.602-0.92-1.183-1.23-1.739
				c-0.33-0.441-0.63-0.903-0.89-1.39c-0.27-0.485-0.38-0.842-0.33-1.072c0.11-0.456,0.15-0.963,0.12-1.515
				c-0.04-0.551,0.1-1.031,0.42-1.441c0.15-0.204,0.5-1.331,1.04-3.379c0.54-2.049,1.12-4.295,1.76-6.745
				c0.63-2.449,1.22-4.846,1.77-7.194c0.56-2.344,0.93-3.919,1.12-4.721L2141.55,86.842"/>
		</g>
		<g>
			<path fill="#020100" d="M2201.99,102.458c0.42-1.225,0.81-2.487,1.2-3.786c0.38-1.297,0.78-2.559,1.19-3.786
				c-0.12-0.291-0.26-0.462-0.41-0.513c-0.15-0.051-0.31-0.165-0.47-0.346c-0.31-0.102-0.72-0.209-1.24-0.324
				c-0.52-0.113-1.02-0.311-1.48-0.593c-0.47-0.28-0.87-0.574-1.22-0.876c-0.34-0.304-0.42-0.732-0.23-1.291
				c0.07-0.222,0.28-0.522,0.64-0.9c0.07-0.223,0.76-0.702,2.08-1.438c1.31-0.735,2.91-1.561,4.79-2.479
				c1.88-0.917,3.92-1.903,6.12-2.959c2.21-1.053,4.29-2.059,6.23-3.016c1.95-0.955,3.59-1.737,4.92-2.345
				c1.32-0.606,2.12-0.987,2.4-1.143c0.27-0.155,0.68-0.358,1.21-0.614c0.54-0.253,0.96-0.33,1.26-0.228s0.55,0.371,0.73,0.808
				c0.19,0.436,0.21,0.878,0.06,1.322c-0.07,0.225-0.2,0.429-0.37,0.618c-1.53,1.845-3.1,3.767-4.72,5.761
				c-1.63,1.996-2.84,4.163-3.63,6.503l0.1,0.218c2.31,0.781,4.66,1.545,7.04,2.286c2.38,0.743,4.73,1.504,7.05,2.286l8.3,2.803
				c0.4,0.136,0.6,0.454,0.6,0.949c0,0.498-0.07,1.033-0.21,1.607c-0.14,0.575-0.32,1.131-0.56,1.671
				c-0.24,0.541-0.4,0.922-0.47,1.145c-0.45,1.336-0.99,1.932-1.61,1.783c-0.63-0.147-1.49-0.409-2.6-0.783
				c-1.61-0.544-3.21-1.021-4.81-1.438c-1.6-0.416-3.2-0.895-4.81-1.438l-9.96-3.364c-0.24,0.043-0.48,0.022-0.73-0.063
				s-0.55-0.12-0.89-0.113c-0.61,1.159-1.13,2.258-1.53,3.299c-0.41,1.043-0.82,2.176-1.23,3.401c-0.93,2.418-1.9,4.79-2.91,7.117
				c-1.02,2.329-1.93,4.719-2.76,7.169c-1.02,3.008-2.13,6.388-3.34,10.137c-1.21,3.751-1.9,7.209-2.08,10.378
				c-0.33,3.982,0.4,7.458,2.2,10.424c1.8,2.967,4.46,5.043,7.98,6.233c0.7,0.237,1.59,0.443,2.65,0.616
				c1.06,0.172,2.17,0.299,3.32,0.376c1.15,0.08,2.29,0.094,3.43,0.042c1.14-0.05,2.07-0.14,2.78-0.271
				c0.62-0.165,1.04-0.239,1.26-0.228c0.22,0.013,0.6,0.048,1.14,0.106c0.1,0.034,0.18,0.033,0.25-0.007
				c0.07-0.038,0.16-0.042,0.26-0.007c0.5,0.17,0.74,0.622,0.72,1.36c-0.03,0.735-0.12,1.329-0.27,1.772
				c-0.11,0.335-0.33,0.664-0.67,0.985c-0.33,0.323-0.74,0.527-1.21,0.614c-2.35,0.322-4.71,0.738-7.06,1.246
				c-2.36,0.507-4.75,0.85-7.16,1.028c-2.04,0.056-3.8-0.043-5.28-0.294c-1.48-0.255-3.23-0.72-5.24-1.399
				c-4.73-1.597-8.58-4.139-11.55-7.624c-0.23-0.324-0.69-0.854-1.4-1.589c-0.7-0.733-1.12-1.245-1.24-1.538
				c-0.46-0.647-0.81-1.264-1.06-1.846c-0.29-0.471-0.55-0.959-0.76-1.469c-0.23-0.509-0.3-0.873-0.22-1.098
				c0.15-0.444,0.23-0.944,0.25-1.497c0.02-0.552,0.2-1.017,0.56-1.395c0.17-0.188,0.62-1.278,1.35-3.266
				c0.73-1.989,1.52-4.171,2.38-6.551c0.86-2.378,1.68-4.709,2.45-6.995c0.77-2.282,1.29-3.814,1.55-4.596L2201.99,102.458"/>
		</g>
		<g>
			<path fill="#020100" d="M2299.28,175.743c-0.4,0.855-1.75,2.138-4.07,3.85c-2.32,1.715-4.92,3.424-7.82,5.125
				c-2.89,1.705-5.66,3.18-8.28,4.424c-2.63,1.243-4.45,1.827-5.46,1.745c-1.89-0.227-4.12-0.839-6.7-1.84
				c-2.58-1.002-4.78-1.927-6.61-2.775c-8.96-4.154-14.51-10.228-16.66-18.223c-2.14-7.996-0.97-16.846,3.54-26.557
				c2.07-4.481,4.83-8.713,8.26-12.699c3.42-3.983,7.23-7.21,11.42-9.677c4.18-2.465,8.59-4.019,13.22-4.661
				c4.63-0.641,9.2,0.087,13.73,2.187c2.22,1.027,4.21,2.406,5.98,4.135c1.78,1.73,3.16,3.668,4.16,5.814
				c0.99,2.146,1.52,4.469,1.6,6.964c0.07,2.496-0.52,5.079-1.75,7.745c-1.14,2.456-2.97,4.134-5.5,5.036
				c-2.52,0.904-4.88,1.562-7.06,1.976c-2.18,0.415-4.39,0.688-6.61,0.822c-2.23,0.134-4.46,0.204-6.68,0.209
				c-2.33-0.039-4.65-0.209-6.97-0.506c-2.31-0.298-4.69-0.619-7.1-0.961c-0.77-0.098-1.58-0.248-2.43-0.445
				c-0.84-0.198-1.68-0.293-2.5-0.284c-0.95,3.318-1.6,6.421-1.94,9.306c-0.35,2.887,0.04,5.889,1.18,9.006
				c0.98,2.663,2.47,5.006,4.46,7.028c1.99,2.024,4.23,3.616,6.74,4.778c4.34,2.01,8.89,2.535,13.67,1.573
				c4.77-0.961,9.28-2.728,13.52-5.302c0.34-0.231,0.66-0.435,0.98-0.612c0.32-0.176,0.67-0.177,1.06,0.001
				c0.48,0.224,0.76,0.618,0.85,1.177C2299.6,174.663,2299.53,175.211,2299.28,175.743 M2291.35,134.15
				c1.24-2.666,1.48-5.081,0.73-7.247c-0.75-2.163-2.29-3.781-4.6-4.854c-2.6-1.206-5.15-1.513-7.65-0.921s-4.84,1.74-7.04,3.445
				c-2.19,1.704-4.17,3.768-5.94,6.189c-1.77,2.423-3.19,4.808-4.28,7.154l-1.34,2.881c0.1,0.044,0.16,0.105,0.18,0.18
				c0.03,0.077,0.09,0.136,0.18,0.181c0.87,0.402,1.87,0.705,3.01,0.906c1.13,0.204,2.18,0.4,3.15,0.587
				c1.88,0.483,3.97,0.708,6.27,0.671c2.3-0.034,4.55-0.35,6.76-0.949c2.21-0.596,4.26-1.555,6.16-2.878
				C2288.84,138.173,2290.31,136.39,2291.35,134.15z"/>
		</g>
		<g>
			<path fill="#020100" d="M2337.13,230.694c-0.45-0.287-0.6-0.735-0.47-1.344l0.15-0.532c-0.02-0.157,0.03-0.334,0.16-0.532
				c0.12-0.199,0.29-0.368,0.51-0.509c3.52-3.333,6.88-7.014,10.08-11.038s6.14-8.117,8.8-12.279c1.01-1.584,2.06-3.285,3.16-5.097
				c1.09-1.813,2.18-3.701,3.25-5.67c1.06-1.967,2-3.919,2.8-5.852c0.79-1.932,1.4-3.814,1.82-5.642
				c0.66-3.201,0.39-6.346-0.84-9.432c-1.22-3.086-3.13-5.455-5.71-7.105c-2.4-1.536-5.12-2.334-8.16-2.39
				c-3.03-0.057-5.92,0.295-8.67,1.055c-4.18,6.54-8.33,13.031-12.44,19.471c-4.12,6.442-8.32,12.901-12.58,19.385
				c-0.64,0.992-1.3,1.928-1.99,2.813c-0.69,0.885-1.36,1.823-1.99,2.812c-0.51,0.795-1.03,1.223-1.58,1.292
				c-0.49-0.033-1.29-0.13-2.41-0.285c-1.12-0.157-2.26-0.366-3.44-0.626c-1.17-0.264-2.26-0.507-3.27-0.733
				c-1.01-0.225-1.65-0.425-1.92-0.599c-0.27-0.172-0.26-0.48,0.02-0.927c0.29-0.445,0.49-0.768,0.62-0.965
				c2.34-3.666,4.72-7.279,7.12-10.839c2.4-3.56,4.77-7.172,7.12-10.839l7.6-11.891c1.2-1.881,2.5-4.017,3.9-6.403
				c1.4-2.384,2.46-4.78,3.18-7.183c0.71-2.403,0.89-4.698,0.52-6.887c-0.36-2.188-1.71-4.026-4.03-5.512
				c-0.36-0.229-0.72-0.418-1.06-0.569c-0.35-0.15-0.7-0.341-1.05-0.569l-0.41-0.258l0.02-0.617l0.26-1.298
				c0.7-1.089,1.59-1.497,2.68-1.223c2.16,0.549,4.35,0.972,6.56,1.265c2.2,0.294,4.42,0.383,6.64,0.264
				c0.4-0.023,1.01-0.086,1.84-0.183c0.83-0.099,1.38-0.06,1.65,0.114l0.35,0.644c0.12,0.215,0.23,0.351,0.32,0.41
				c1.12,1.838,1.57,4.079,1.35,6.728c-0.22,2.649-0.56,5.018-1,7.108c2.15-0.022,4.6,0.078,7.35,0.298
				c2.74,0.222,5.52,0.597,8.31,1.13c2.8,0.532,5.48,1.199,8.05,2.001c2.56,0.803,4.69,1.745,6.39,2.828
				c3.56,2.279,5.65,5.009,6.25,8.187c0.61,3.181,0.38,6.488-0.69,9.922c-1.07,3.436-2.63,6.868-4.7,10.293
				c-2.06,3.427-3.98,6.529-5.75,9.302c-2.41,3.767-4.85,7.44-7.33,11.019c-2.48,3.581-4.92,7.254-7.33,11.018
				c-1.14,1.784-0.95,3.161,0.57,4.134c0.81,0.515,1.7,0.843,2.68,0.981c0.99,0.14,1.83,0.437,2.55,0.896
				c0.63,0.399,0.87,0.905,0.73,1.515c-0.14,0.611-0.36,1.163-0.68,1.658c-0.57,0.891-1.25,1.262-2.03,1.109
				c-0.79-0.153-1.6-0.359-2.44-0.618c-2.84-0.694-5.75-1.266-8.74-1.712c-2.99-0.447-5.98-0.791-8.98-1.031
				c-0.24-0.017-0.52-0.021-0.84-0.014c-0.32,0.005-0.52-0.021-0.61-0.077c-0.42-0.132-1.12-0.226-2.09-0.287L2337.13,230.694"/>
		</g>
	</g>
</g>
</svg>
