<?xml version="1.0" encoding="utf-8"?>
<!-- Generator: Adobe Illustrator 17.0.0, SVG Export Plug-In . SVG Version: 6.00 Build 0)  -->
<!DOCTYPE svg PUBLIC "-//W3C//DTD SVG 1.1//EN" "http://www.w3.org/Graphics/SVG/1.1/DTD/svg11.dtd">
<svg version="1.1" xmlns="http://www.w3.org/2000/svg" xmlns:xlink="http://www.w3.org/1999/xlink" x="0px" y="0px" width="4000px"
	 height="758.974px" viewBox="0 0 4000 758.974" enable-background="new 0 0 4000 758.974" xml:space="preserve">
<g id="blå">
	<polygon fill="#3D58A7" points="1801,652.026 0,652.026 0,632.026 1789,632.026 	"/>
	<polygon fill="#3D58A7" points="2199,652.026 4000,652.026 4000,632.026 2211,632.026 	"/>
</g>
<g id="holes">
	<ellipse transform="matrix(0.9815 -0.1914 0.1914 0.9815 -80.7634 358.9063)" cx="1817.5" cy="597.526" rx="5" ry="15"/>
	<ellipse transform="matrix(0.9815 -0.1914 0.1914 0.9815 -78.3454 362.1693)" cx="1835.522" cy="586.623" rx="5" ry="14.251"/>
	<ellipse transform="matrix(0.9815 -0.1914 0.1914 0.9815 -76.199 365.4862)" cx="1853.843" cy="577.188" rx="5" ry="13.468"/>
	<ellipse transform="matrix(-0.9815 -0.1914 0.1914 -0.9815 4209.4497 1601.6793)" cx="2182.085" cy="597.526" rx="5" ry="15"/>
	<ellipse transform="matrix(-0.9815 -0.1914 0.1914 -0.9815 4175.8311 1576.6116)" cx="2164.062" cy="586.623" rx="5" ry="14.251"/>
	<ellipse transform="matrix(-0.9815 -0.1914 0.1914 -0.9815 4141.3442 1554.3893)" cx="2145.742" cy="577.188" rx="5" ry="13.468"/>
</g>
<g id="boards">
	<path fill="none" stroke="#000000" stroke-width="3" stroke-linecap="round" stroke-linejoin="round" d="M1812.229,633.545
		c74.543-57.02,156.043-23.02,187.543-248.52"/>
	<path fill="none" stroke="#000000" stroke-width="3" stroke-linecap="round" stroke-linejoin="round" d="M1854.148,673.727
		c30.624-47.201,145.624-49.201,145.624-194.201"/>
	<path fill="none" stroke="#000000" stroke-width="3" stroke-linecap="round" stroke-linejoin="round" d="M1915,690.303
		c29.271-40.777,84.771-27.777,84.771-117.277"/>
	<path fill="none" stroke="#000000" stroke-width="3" stroke-linecap="round" stroke-linejoin="round" d="M1961.821,705.413
		c11.95-21.388,37.95-9.388,37.95-49.388"/>
	<path fill="none" stroke="#000000" stroke-width="3" stroke-linecap="round" stroke-linejoin="round" d="M2187.771,633.545
		c-74.543-57.02-156.043-23.02-187.543-248.52"/>
	<path fill="none" stroke="#000000" stroke-width="3" stroke-linecap="round" stroke-linejoin="round" d="M2145.852,673.727
		c-30.623-47.201-145.623-49.201-145.623-194.201"/>
	<path fill="none" stroke="#000000" stroke-width="3" stroke-linecap="round" stroke-linejoin="round" d="M2085,690.303
		c-29.271-40.777-84.771-27.777-84.771-117.277"/>
	<path fill="none" stroke="#000000" stroke-width="3" stroke-linecap="round" stroke-linejoin="round" d="M2038.178,705.413
		c-11.949-21.388-37.949-9.388-37.949-49.388"/>
</g>
<g id="outline">
	<path fill="none" stroke="#000000" stroke-width="6" stroke-linecap="round" stroke-linejoin="round" d="M2000.5,302.693
		c-36.329,249.256-119,208.001-199,269.667"/>
	<path fill="none" stroke="#000000" stroke-width="6" stroke-linecap="round" stroke-linejoin="round" d="M1801.5,572.36
		c0,153.166,143.667,87.333,199,162.333"/>
	<path fill="none" stroke="#000000" stroke-width="6" stroke-linecap="round" stroke-linejoin="round" d="M1999.5,302.693
		c36.329,249.256,119,208.001,199,269.667"/>
	<path fill="none" stroke="#000000" stroke-width="6" stroke-linecap="round" stroke-linejoin="round" d="M2198.5,572.36
		c0,153.166-143.666,87.333-199,162.333"/>
</g>
<g id="center">
	<g>
		<path d="M2005,741.026c0,2.75-2.25,5-5,5l0,0c-2.75,0-5-2.25-5-5v-516c0-2.75,2.25-5,5-5l0,0c2.75,0,5,2.25,5,5V741.026z"/>
	</g>
</g>
<g id="text">
	<g>
		<path d="M1687.571,171.557c2.967,4.802,4.905,9.758,5.813,14.864c0.909,5.108,0.974,10.113,0.197,15.016
			c-0.777,4.906-2.262,9.625-4.453,14.156c-2.191,4.536-4.83,8.651-7.909,12.352c-2.275,2.786-4.739,5.208-7.399,7.267
			c-2.66,2.058-5.48,4.008-8.461,5.85c-2.71,1.674-5.486,3.043-8.323,4.105c-2.84,1.061-5.846,1.953-9.021,2.671
			c-0.487,0.022-0.895,0.066-1.227,0.136c-0.333,0.066-0.683,0.007-1.048-0.182c-0.518-0.231-1.484-1.189-2.899-2.875
			c-1.414-1.683-2.9-3.529-4.454-5.543c-1.555-2.01-3.003-3.951-4.344-5.818c-1.341-1.868-2.227-3.15-2.661-3.852
			c-0.494-0.8-0.638-1.436-0.431-1.911c0.206-0.471,0.67-0.933,1.394-1.38c1.084-0.67,1.845-1.104,2.282-1.306
			c0.438-0.2,0.997,0.249,1.676,1.349c3.338,5.403,7.243,8.796,11.718,10.179c4.474,1.383,9.195,0.54,14.164-2.53
			c3.612-2.232,6.854-5.271,9.72-9.116c2.867-3.845,5.024-8.081,6.472-12.708c1.447-4.627,2.021-9.404,1.721-14.335
			c-0.3-4.927-1.809-9.594-4.529-13.998c-1.607-2.601-3.695-4.768-6.262-6.499c-2.568-1.731-5.262-2.555-8.081-2.473
			c-1.366,0.015-2.999,0.298-4.903,0.852c-1.904,0.555-3.883,1.191-5.937,1.906c-2.054,0.718-4.054,1.468-6.001,2.256
			c-1.947,0.788-3.523,1.419-4.732,1.887c-6.461,2.473-12.559,2.854-18.296,1.143c-5.736-1.708-10.675-5.915-14.817-12.619
			c-3.461-5.602-5.446-11.287-5.953-17.059c-0.507-5.768,0.119-11.271,1.878-16.505c1.757-5.233,4.424-10.06,7.998-14.48
			c3.572-4.417,7.663-8.052,12.27-10.898c0.451-0.279,1.416-0.839,2.892-1.683c1.476-0.84,3.059-1.611,4.75-2.312
			c1.69-0.697,3.284-1.199,4.782-1.503c1.498-0.303,2.494-0.054,2.988,0.746c0.248,0.401,0.634,1.131,1.163,2.185
			c0.527,1.058,1.064,2.178,1.608,3.361c0.545,1.186,0.966,2.273,1.266,3.261c0.299,0.991,0.314,1.568,0.043,1.736
			c-0.453,0.28-1.088,0.465-1.904,0.555c-3.238,0.62-6.517,1.573-9.838,2.864c-3.32,1.293-6.336,2.774-9.046,4.449
			c-2.621,1.619-5.016,3.653-7.185,6.098c-2.17,2.449-3.876,5.194-5.113,8.239c-1.239,3.046-1.801,6.229-1.686,9.544
			c0.114,3.318,1.191,6.625,3.231,9.927c1.854,3.001,3.94,5.066,6.258,6.19c2.318,1.128,4.796,1.703,7.435,1.731
			c2.639,0.029,5.349-0.434,8.127-1.392c2.779-0.956,5.534-2,8.266-3.137c2.731-1.133,5.341-2.264,7.831-3.387
			c2.489-1.123,4.746-1.963,6.771-2.525c6.472-1.646,12.497-1.085,18.079,1.687C1679.029,160.867,1683.739,165.354,1687.571,171.557
			z"/>
		<path d="M1756.937,105.747c0.094,0.218-0.05,0.954-0.431,2.207c-0.382,1.257-0.825,2.636-1.329,4.136
			c-0.506,1.503-0.985,2.928-1.44,4.28c-0.455,1.352-0.758,2.253-0.909,2.704c-0.203,0.602-0.367,1.154-0.496,1.658
			c-0.127,0.506-0.271,1.112-0.425,1.819c3.458,1.834,6.517,4.544,9.177,8.13c2.659,3.59,4.787,7.219,6.379,10.884
			c2.39,5.501,3.741,10.877,4.055,16.126c0.312,5.25-0.338,10.149-1.95,14.696c-1.614,4.548-4.078,8.6-7.395,12.157
			c-3.317,3.557-7.458,6.415-12.425,8.573c-3.506,1.523-6.993,2.428-10.455,2.716c-3.465,0.288-7.072-0.419-10.823-2.126
			c-0.303,0.901-0.646,2.108-1.031,3.622c-0.384,1.513-0.867,3.069-1.445,4.667c-0.581,1.599-1.229,3.035-1.949,4.309
			c-0.721,1.275-1.518,2.102-2.394,2.483c-0.39,0.169-0.924,0.272-1.602,0.311c-0.679,0.037-1.158-0.266-1.439-0.913
			c-0.141-0.323,0.005-1.318,0.441-2.98c0.433-1.664,0.955-3.46,1.564-5.393c0.608-1.929,1.202-3.759,1.784-5.487
			c0.58-1.725,0.972-2.89,1.174-3.492c-3.163-2.214-5.979-4.967-8.449-8.254c-2.469-3.285-4.501-6.763-6.095-10.431
			c-2.203-5.068-3.583-10.176-4.139-15.32c-0.558-5.143-0.269-10.012,0.86-14.607c1.13-4.593,3.149-8.74,6.056-12.441
			c2.908-3.698,6.794-6.607,11.665-8.724c3.7-1.607,7.416-2.579,11.148-2.92c3.731-0.338,7.62,0.151,11.667,1.47
			c0.808-2.4,1.568-4.784,2.279-7.145c0.711-2.359,1.47-4.741,2.279-7.145c0.105-0.557,0.449-0.964,1.034-1.218
			c0.194-0.085,0.57-0.086,1.125-0.008c0.556,0.08,1.109,0.225,1.664,0.432c0.553,0.211,1.059,0.439,1.515,0.688
			C1756.639,105.462,1756.891,105.641,1756.937,105.747z M1741.812,133.285c-3.167-1.957-6.293-3.292-9.38-4.003
			c-3.086-0.708-6.336-0.325-9.744,1.156c-2.922,1.27-5.172,2.954-6.75,5.049c-1.579,2.099-2.641,4.451-3.185,7.058
			c-0.545,2.611-0.56,5.374-0.044,8.29c0.515,2.92,1.406,5.833,2.671,8.745c3.047,7.013,7.346,12.646,12.9,16.899
			c0.053-0.408,0.298-1.313,0.728-2.721c0.432-1.405,0.912-2.96,1.445-4.667c0.532-1.704,1.051-3.309,1.556-4.811
			c0.504-1.5,0.858-2.552,1.061-3.154c0.863-2.81,1.737-5.594,2.623-8.353c0.886-2.756,1.737-5.594,2.552-8.514
			c0.606-1.802,1.248-3.587,1.927-5.357C1740.85,137.135,1741.396,135.263,1741.812,133.285z M1760.597,154.936
			c-1.499-3.451-3.451-6.675-5.852-9.671c-2.403-2.995-4.988-5.685-7.762-8.071c-2.471,7.102-4.848,14.161-7.123,21.175
			c-2.277,7.018-4.58,14.108-6.907,21.274c3.026,1.637,6.204,2.756,9.535,3.358c3.33,0.606,6.553,0.23,9.67-1.125
			c5.259-2.285,8.601-5.916,10.027-10.896C1763.609,166.003,1763.082,160.654,1760.597,154.936z"/>
		<path d="M1812.011,158.344c0.808-0.26,1.656-0.655,2.545-1.19c0.888-0.532,1.699-1.04,2.437-1.527
			c0.166-0.175,0.357-0.361,0.574-0.556c0.215-0.191,0.424-0.322,0.628-0.388c0.706-0.227,1.269-0.038,1.689,0.568
			c0.418,0.607,0.718,1.19,0.898,1.749c0.253,0.784,0.112,1.386-0.423,1.804c-0.534,0.421-1.018,0.823-1.451,1.209
			c-0.065,0.145-0.274,0.366-0.623,0.664c-0.351,0.298-0.716,0.633-1.099,1.003c-0.382,0.372-0.774,0.713-1.175,1.027
			c-0.4,0.314-0.653,0.488-0.752,0.52c-2.535,2.178-4.681,4.257-6.438,6.245c-1.76,1.986-3.664,4.3-5.713,6.938
			c-0.333,0.353-0.631,0.727-0.894,1.122c-0.266,0.393-0.649,0.672-1.153,0.835c-1.516,0.488-2.527-0.052-3.032-1.618
			c-0.289-0.897-0.46-1.768-0.508-2.616c-0.051-0.849-0.121-1.754-0.205-2.714c-0.231-1.408-0.521-2.827-0.871-4.26
			c-0.352-1.431-0.642-2.852-0.871-4.261c-0.974-4.751-2.168-9.495-3.581-14.229c-1.416-4.733-2.878-9.452-4.393-14.153
			c-2.272-7.052-4.495-14.121-6.666-21.205c-2.173-7.084-4.394-14.153-6.666-21.205c-0.216-0.672-0.909-2.733-2.078-6.188
			c-1.169-3.452-2.428-7.187-3.776-11.201c-1.351-4.013-2.607-7.653-3.771-10.924c-1.165-3.268-1.854-5.056-2.062-5.359
			l-0.216-0.672c-0.18-0.559,0.012-1.084,0.58-1.577c0.566-0.49,0.984-0.841,1.251-1.052l10.396-6.686
			c1.002-0.694,1.955-1.464,2.854-2.31c0.899-0.846,1.903-1.447,3.016-1.806c0.606-0.195,1.09-0.073,1.456,0.365
			c0.364,0.439,0.637,0.939,0.817,1.498c0.181,0.562,0.014,1.171-0.499,1.829c-0.514,0.661-1.083,1.493-1.706,2.496
			c-0.625,1.006-1.169,2.262-1.63,3.769c-0.462,1.51-0.572,3.335-0.326,5.48c0.166,1.554,0.506,3.39,1.022,5.509
			c0.516,2.121,1.083,4.316,1.704,6.586c0.62,2.274,1.256,4.507,1.91,6.706c0.651,2.2,1.232,4.083,1.737,5.649
			c1.925,6.672,3.883,13.269,5.875,19.792c1.99,6.526,4.051,13.09,6.179,19.694l8.603,26.698c0.289,0.897,0.583,1.729,0.887,2.494
			c0.303,0.768,0.599,1.6,0.888,2.494c0.324,1.007,0.773,1.882,1.347,2.624s1.415,0.934,2.528,0.575L1812.011,158.344z"/>
		<path d="M1884.944,76.913c0.254,1.149,0.147,3.129-0.315,5.942c-0.465,2.813-1.165,6.04-2.098,9.679
			c-0.935,3.64-1.966,7.454-3.095,11.437c-1.131,3.985-2.265,7.819-3.406,11.505c-1.142,3.686-2.159,6.954-3.05,9.8
			c-0.894,2.849-1.521,4.916-1.89,6.201c-0.133,0.391-0.551,1.689-1.259,3.892c-0.709,2.207-1.5,4.641-2.379,7.303
			c-0.878,2.665-1.723,5.111-2.535,7.337c-0.811,2.229-1.401,3.5-1.763,3.824c-0.444,0.459-1.014,0.947-1.715,1.464
			c-0.702,0.517-1.463,1.016-2.278,1.499c-0.819,0.48-1.617,0.928-2.395,1.343c-0.78,0.413-1.428,0.677-1.945,0.792
			c-0.622,0.138-1.293-0.317-2.014-1.361c-0.721-1.045-1.249-1.829-1.583-2.359c-3.296-5.052-6.609-10.069-9.941-15.054
			c-3.334-4.981-6.466-10.16-9.396-15.536c-1.826-3.328-3.567-6.646-5.223-9.955c-1.658-3.306-3.19-6.67-4.601-10.093
			c-0.438-0.987-0.846-1.98-1.231-2.979c-0.384-0.999-0.795-1.992-1.231-2.98c-1.247,0.759-2.552,1.621-3.914,2.584
			c-1.364,0.966-2.769,1.607-4.222,1.929c-0.518,0.114-0.95,0.002-1.3-0.345c-0.346-0.344-0.585-0.802-0.713-1.378
			c-0.203-0.917-0.161-1.59,0.125-2.015c0.289-0.425,0.756-0.89,1.404-1.395c1.504-1.056,3.024-2.053,4.557-2.997
			c1.53-0.94,3.063-1.881,4.595-2.825c1.323-0.895,2.634-1.848,3.935-2.859c1.298-1.01,2.609-1.961,3.935-2.859
			c0.362-0.32,0.915-0.772,1.656-1.36c0.74-0.585,1.368-0.936,1.888-1.051c0.622-0.138,1.165,0.103,1.629,0.724
			c0.463,0.62,0.759,1.218,0.886,1.791c0.153,0.689,0.085,1.246-0.201,1.671c-0.288,0.425-0.587,0.915-0.899,1.464
			c-0.313,0.552-0.562,1.271-0.747,2.153c-0.187,0.886-0.099,2.131,0.257,3.738c0.61,2.756,1.878,6.27,3.803,10.541
			s4.121,8.664,6.589,13.176c2.468,4.513,4.969,8.809,7.503,12.884c2.535,4.077,4.663,7.31,6.389,9.697
			c0.283,0.299,0.708,0.868,1.275,1.705c0.566,0.84,1.056,1.212,1.472,1.12c0.207-0.045,0.44-0.337,0.703-0.878
			c0.261-0.538,0.508-1.134,0.745-1.791c0.235-0.653,0.446-1.301,0.629-1.946c0.184-0.642,0.302-1.089,0.355-1.343
			c0.314-1.032,0.622-2.094,0.926-3.186c0.302-1.089,0.609-2.151,0.926-3.186c1.811-6.062,3.493-12.216,5.046-18.464
			c1.554-6.245,2.691-12.64,3.418-19.187c0.107-0.986,0.261-2.135,0.46-3.444c0.2-1.309,0.198-2.421-0.006-3.341
			c-0.229-1.034-0.661-1.751-1.292-2.153c-0.635-0.401-1.339-0.635-2.114-0.706c-0.777-0.068-1.58-0.011-2.409,0.172
			c-0.831,0.184-1.609,0.356-2.333,0.517c-0.416,0.092-0.811,0.151-1.186,0.172c-0.377,0.024-0.772,0.081-1.186,0.172
			c-0.727,0.161-1.146-0.017-1.26-0.534c-0.114-0.517-0.235-1.06-0.362-1.636c-0.178-0.802-0.26-1.416-0.245-1.843
			c0.013-0.423,0.448-0.669,1.304-0.741c1.841-0.526,3.694-0.999,5.56-1.412c1.866-0.413,3.708-0.939,5.522-1.584
			c1.632-0.48,3.22-1.044,4.765-1.688c1.543-0.641,3.144-1.148,4.803-1.516C1883.721,74.835,1884.614,75.422,1884.944,76.913z"/>
		<path d="M1957.595,114.949c0.514,4.912-0.211,9.218-2.172,12.91c-1.963,3.695-4.572,6.806-7.831,9.333
			c-3.258,2.531-6.922,4.508-10.989,5.94c-4.069,1.429-7.95,2.34-11.646,2.727c-6.653,0.697-13.313,0.33-19.974-1.102
			c-0.658-0.166-1.069-0.271-1.234-0.314c-0.165-0.041-0.39-0.402-0.674-1.082c-0.311-0.913-0.583-2.245-0.818-3.994
			c-0.238-1.748-0.404-3.089-0.502-4.027c-0.098-0.935-0.177-1.933-0.233-2.991c-0.058-1.058-0.083-2.059-0.075-3.007
			c-0.006-1.064,0.039-1.925,0.13-2.585c0.091-0.658,0.664-1.045,1.721-1.156c0.95-0.1,1.584,0.1,1.904,0.599
			c0.317,0.499,0.58,1.211,0.784,2.135c0.309,0.916,0.562,1.804,0.76,2.67c0.196,0.867,0.503,1.751,0.918,2.653
			c1.385,3.048,3.46,4.754,6.22,5.113c2.76,0.362,5.46,0.404,8.101,0.127c2.111-0.221,4.533-0.799,7.265-1.736
			c2.73-0.935,5.297-2.179,7.697-3.733c2.4-1.551,4.361-3.472,5.883-5.76c1.522-2.288,2.124-4.951,1.806-7.994
			c-0.196-1.87-0.796-3.256-1.796-4.158c-1.002-0.898-2.188-1.514-3.556-1.845c-1.371-0.328-2.827-0.472-4.369-0.43
			c-1.544,0.045-2.897,0.126-4.058,0.247c-2.126,0.107-4.226,0.176-6.303,0.216c-2.078,0.041-4.204-0.12-6.376-0.485
			c-3.689-0.559-6.901-2.173-9.636-4.844c-2.736-2.668-4.323-6.11-4.764-10.321c-0.417-3.975-0.01-7.743,1.219-11.302
			c1.229-3.557,2.988-6.637,5.278-9.244c2.29-2.604,5-4.75,8.134-6.439c3.131-1.686,6.442-2.714,9.927-3.079
			c2.322-0.243,4.67-0.25,7.043-0.028c2.371,0.226,4.704,0.572,6.996,1.041c1.209,0.348,1.901,1.339,2.073,2.976
			c0.049,0.469,0.038,1.121-0.035,1.955c-0.073,0.836-0.176,1.646-0.307,2.427c-0.133,0.784-0.38,1.489-0.739,2.117
			c-0.362,0.631-0.755,0.966-1.175,1.01c-0.53,0.056-1.042-0.007-1.542-0.193c-0.5-0.183-1.026-0.363-1.578-0.544
			c-1-0.367-2.151-0.662-3.455-0.88c-1.304-0.218-2.684-0.398-4.141-0.543c-1.456-0.141-2.852-0.203-4.183-0.183
			c-1.333,0.023-2.528,0.087-3.583,0.198c-1.584,0.166-3.091,0.562-4.521,1.183c-1.431,0.624-2.701,1.497-3.81,2.616
			c-1.111,1.122-1.963,2.422-2.554,3.903c-0.593,1.481-0.79,3.159-0.595,5.029c0.27,2.574,1.111,4.496,2.526,5.767
			c1.414,1.271,3.212,2.146,5.399,2.627c2.185,0.48,4.586,0.733,7.206,0.753c2.617,0.023,5.258,0.012,7.924-0.031
			c2.663-0.04,5.207,0.018,7.625,0.177c2.419,0.163,4.528,0.679,6.329,1.555c2.481,1.278,4.422,3.234,5.818,5.865
			C1956.456,109.422,1957.301,112.141,1957.595,114.949z"/>
		<path d="M1990.367,100.229c0.738,0.248,1.481,0.374,2.225,0.384c0.741,0.01,1.485,0.021,2.229,0.031
			c1.804,0.025,3.32-0.161,4.547-0.557c1.225-0.396,2.323-0.971,3.29-1.727c0.966-0.755,1.828-1.689,2.588-2.803
			c0.757-1.111,1.626-2.431,2.604-3.955c0.758-1.169,1.41-2.255,1.957-3.253c0.544-0.996,1.09-2.14,1.641-3.434
			c0.548-1.294,1.233-2.792,2.054-4.495c0.82-1.703,1.24-3.263,1.26-4.683c0.021-1.535-0.338-2.516-1.073-2.94
			c-0.738-0.424-1.531-0.672-2.379-0.745c-0.851-0.069-1.646-0.169-2.386-0.298c-0.742-0.129-1.104-0.784-1.088-1.967
			c0.025-1.772,0.993-2.646,2.904-2.62c3.608,0.05,7.328-0.074,11.155-0.374c0.851-0.104,1.648-0.211,2.394-0.319
			c0.743-0.105,1.541-0.155,2.392-0.143c0.742,0.01,1.243,0.282,1.502,0.814c0.257,0.533,0.383,1.152,0.372,1.858
			c-0.008,0.59-0.503,1.846-1.486,3.772c-0.982,1.927-2.073,3.941-3.27,6.041c-1.199,2.101-2.395,4.085-3.588,5.949
			c-1.195,1.866-2.009,3.09-2.44,3.671c-0.974,1.282-2.326,2.967-4.053,5.06c-1.729,2.093-3.027,3.839-3.896,5.239
			c0.624,0.951,1.301,1.871,2.032,2.763c0.729,0.893,1.514,1.816,2.352,2.768c3.657,4.169,7.315,8.336,10.976,12.503
			c3.658,4.17,7.533,8.105,11.623,11.807c1.362,1.196,2.674,2.419,3.931,3.671c1.257,1.253,2.619,2.418,4.093,3.497
			c0.316,0.242,0.762,0.57,1.34,0.989c0.577,0.421,0.863,0.924,0.855,1.511c-0.008,0.59-0.361,1.112-1.058,1.573
			c-0.698,0.459-1.5,0.831-2.404,1.113c-0.907,0.28-1.813,0.474-2.717,0.58c-0.904,0.103-1.569,0.154-1.993,0.148
			c-2.548-0.035-4.983-0.659-7.301-1.866c-2.32-1.207-4.529-2.737-6.626-4.591c-2.1-1.851-4.088-3.85-5.97-5.994
			c-1.882-2.143-3.605-4.166-5.172-6.07c-1.882-2.144-3.738-4.287-5.565-6.429c-1.829-2.143-3.737-4.344-5.722-6.608
			c-0.732-0.832-1.411-1.607-2.039-2.322c-0.627-0.714-1.362-1.37-2.203-1.972c-1.382,0.1-2.737,0.139-4.063,0.12
			c-1.329-0.019-2.683,0.023-4.063,0.12c-0.255,2.938-0.4,5.847-0.44,8.727c-0.04,2.883-0.136,5.792-0.281,8.729
			c-0.021,1.53-0.097,3.028-0.222,4.496c-0.128,1.47-0.2,2.908-0.22,4.319c-0.012,0.824-0.047,1.441-0.105,1.851
			c-0.061,0.413-0.144,0.704-0.251,0.878c-0.11,0.175-0.324,0.349-0.645,0.521c-0.321,0.172-0.803,0.49-1.447,0.95
			c-0.644,0.462-1.262,0.864-1.849,1.209c-0.589,0.345-1.152,0.69-1.687,1.035c-0.215,0.113-0.562,0.314-1.043,0.603
			c-0.482,0.285-0.991,0.573-1.525,0.861c-0.537,0.285-1.018,0.543-1.444,0.773c-0.429,0.229-0.697,0.343-0.801,0.342
			c-0.956-0.013-1.456-0.403-1.497-1.168c-0.044-0.767-0.057-1.619-0.044-2.559c0.036-2.585,0.097-5.143,0.187-7.672
			c0.088-2.527,0.202-5.025,0.344-7.493c0.312-7.169,0.623-14.31,0.936-21.423c0.311-7.11,0.622-14.251,0.936-21.423
			c0.334-8.816,0.724-17.632,1.166-26.448c0.441-8.815,0.724-17.633,0.847-26.452c0.015-1.059-0.025-2.118-0.115-3.177
			c-0.092-1.06-0.129-2.119-0.115-3.178c0.021-1.527,0.562-2.286,1.625-2.271c0.318,0.004,1.063-0.162,2.237-0.498
			c1.172-0.337,2.424-0.7,3.759-1.095c1.332-0.392,2.584-0.785,3.76-1.182c1.173-0.394,1.92-0.649,2.241-0.763
			c0.32-0.111,0.773-0.282,1.361-0.51c0.585-0.226,1.253-0.451,2-0.678c0.745-0.224,1.44-0.449,2.08-0.677
			c0.641-0.226,1.12-0.337,1.438-0.333c1.167,0.016,1.742,0.733,1.722,2.146c-0.015,1.062-0.611,1.938-1.788,2.628
			c-1.18,0.689-2.197,1.323-3.053,1.901c-1.929,1.268-3.125,3.08-3.58,5.43c-0.458,2.351-0.81,4.703-1.054,7.056
			c-0.633,7.181-1.051,14.336-1.255,21.462c-0.207,7.126-0.466,14.281-0.777,21.467c-0.163,4.006-0.378,8.008-0.646,12.013
			c-0.27,4.004-0.431,8.008-0.486,12.012L1990.367,100.229z"/>
		<path d="M2117.691,145.794c-0.074,0.585-0.814,1.142-2.22,1.674c-1.407,0.532-2.962,0.985-4.669,1.363
			c-1.708,0.375-3.372,0.639-4.997,0.788c-1.624,0.149-2.752,0.184-3.385,0.104c-3.476-0.442-6.169-1.792-8.075-4.049
			c-1.908-2.257-3.219-5.21-3.932-8.857c-0.077-0.246-0.172-0.761-0.285-1.548c-0.116-0.785-0.263-1.306-0.443-1.568
			c-0.918,0.478-1.735,1.024-2.456,1.644c-3.847,2.476-8.038,4.7-12.568,6.672c-4.533,1.972-9.064,2.671-13.593,2.096
			c-1.896-0.241-3.763-0.714-5.6-1.42c-1.837-0.706-3.403-1.644-4.7-2.812s-2.287-2.652-2.967-4.45
			c-0.682-1.798-0.866-3.92-0.557-6.362c0.576-4.531,2.382-8.433,5.422-11.709c3.038-3.276,6.563-5.957,10.576-8.048
			c4.011-2.088,8.23-3.708,12.658-4.857c4.426-1.149,8.37-1.859,11.831-2.128c1.293-0.072,2.591-0.174,3.892-0.303
			c1.301-0.129,2.551-0.295,3.756-0.498c0.359-2.825,0.507-5.468,0.445-7.926c-0.063-2.459-0.506-4.668-1.325-6.626
			c-0.822-1.957-2.092-3.556-3.807-4.791c-1.717-1.235-3.996-2.033-6.841-2.395c-1.16-0.147-2.364-0.15-3.61-0.014
			c-1.25,0.138-2.479,0.338-3.688,0.598c-1.213,0.263-2.336,0.476-3.373,0.638c-1.039,0.165-1.872,0.207-2.505,0.127
			c-0.528-0.067-0.73-0.565-0.611-1.501c0.163-1.282,0.683-2.847,1.56-4.692c0.876-1.845,1.786-3.121,2.734-3.832
			c0.691-0.385,1.853-0.682,3.484-0.891c1.632-0.207,3.38-0.282,5.247-0.222c1.863,0.059,3.647,0.138,5.349,0.235
			c1.698,0.099,2.97,0.2,3.814,0.307c4.844,0.615,8.476,1.73,10.895,3.34c2.417,1.613,4.076,3.719,4.977,6.323
			c0.898,2.604,1.228,5.699,0.988,9.284c-0.243,3.587-0.651,7.653-1.229,12.203c-0.416,3.268-0.91,6.525-1.482,9.77
			c-0.573,3.247-1.075,6.563-1.505,9.945c-0.267,2.1-0.387,4.308-0.36,6.623c0.027,2.315,0.369,4.465,1.028,6.443
			c0.656,1.981,1.641,3.707,2.954,5.177c1.311,1.472,3.11,2.471,5.399,2.998c0.934,0.238,1.839,0.473,2.721,0.702
			C2117.517,143.579,2117.869,144.394,2117.691,145.794z M2094.69,106.95c-2.377,0.173-4.704,0.38-6.983,0.624
			c-2.278,0.244-4.531,0.699-6.756,1.364c-1.775,0.486-3.715,1.217-5.818,2.195c-2.105,0.977-4.101,2.146-5.984,3.507
			c-1.887,1.361-3.508,2.964-4.865,4.806c-1.358,1.845-2.186,3.932-2.482,6.264c-0.341,2.685,0.333,4.963,2.021,6.837
			c1.688,1.876,3.69,2.958,6.009,3.253c2.528,0.321,5.052,0.05,7.569-0.816c2.519-0.864,4.79-2.117,6.82-3.757
			c2.972-2.348,5.101-4.981,6.383-7.903c1.278-2.919,2.315-6.224,3.106-9.919c0.089-0.7,0.277-1.771,0.569-3.217
			C2094.568,108.743,2094.705,107.663,2094.69,106.95z"/>
		<path d="M2141.549,98.868c0.297-1.258,0.574-2.552,0.834-3.881c0.257-1.327,0.536-2.621,0.834-3.881
			c-0.154-0.277-0.307-0.435-0.462-0.472c-0.155-0.036-0.323-0.136-0.502-0.299c-0.311-0.073-0.731-0.142-1.261-0.207
			c-0.532-0.063-1.041-0.214-1.529-0.451c-0.492-0.235-0.923-0.49-1.294-0.758c-0.374-0.27-0.492-0.688-0.357-1.262
			c0.054-0.229,0.236-0.548,0.554-0.958c0.054-0.228,0.697-0.77,1.938-1.627c1.237-0.855,2.748-1.827,4.534-2.918
			c1.783-1.089,3.725-2.262,5.822-3.521c2.096-1.255,4.068-2.453,5.919-3.588c1.848-1.133,3.405-2.066,4.669-2.796
			c1.261-0.728,2.022-1.182,2.285-1.364c0.26-0.18,0.644-0.42,1.153-0.725c0.506-0.303,0.917-0.418,1.227-0.345
			c0.311,0.073,0.58,0.318,0.809,0.734c0.229,0.417,0.289,0.855,0.182,1.312c-0.055,0.23-0.161,0.446-0.317,0.65
			c-1.341,1.98-2.728,4.04-4.157,6.179c-1.433,2.14-2.432,4.411-2.998,6.814l0.114,0.208c2.376,0.561,4.785,1.1,7.229,1.614
			c2.44,0.516,4.851,1.053,7.229,1.614l8.525,2.011c0.412,0.097,0.644,0.396,0.691,0.888c0.047,0.495,0.026,1.034-0.055,1.618
			c-0.085,0.586-0.22,1.158-0.405,1.717c-0.188,0.562-0.307,0.956-0.361,1.184c-0.323,1.374-0.803,2.017-1.436,1.927
			c-0.635-0.087-1.52-0.268-2.656-0.536c-1.654-0.39-3.296-0.715-4.924-0.98c-1.63-0.263-3.271-0.59-4.923-0.98l-10.231-2.413
			c-0.236,0.066-0.481,0.068-0.738,0.007c-0.26-0.061-0.557-0.069-0.894-0.029c-0.506,1.212-0.91,2.354-1.218,3.428
			c-0.31,1.077-0.61,2.244-0.907,3.502c-0.698,2.495-1.441,4.948-2.228,7.359c-0.789,2.413-1.478,4.879-2.071,7.396
			c-0.729,3.09-1.521,6.56-2.373,10.406c-0.854,3.849-1.218,7.357-1.092,10.527c0.039,3.997,1.093,7.389,3.165,10.172
			c2.068,2.785,4.913,4.602,8.532,5.456c0.722,0.17,1.621,0.292,2.695,0.364c1.072,0.071,2.188,0.094,3.34,0.063
			c1.152-0.028,2.292-0.122,3.421-0.28c1.127-0.157,2.043-0.334,2.744-0.531c0.597-0.222,1.005-0.335,1.227-0.345
			c0.22-0.007,0.601-0.008,1.146-0.001c0.102,0.024,0.186,0.016,0.253-0.031c0.063-0.044,0.148-0.056,0.252-0.031
			c0.517,0.122,0.796,0.55,0.843,1.286c0.044,0.735,0.013,1.334-0.095,1.79c-0.081,0.344-0.273,0.692-0.574,1.043
			c-0.303,0.354-0.687,0.594-1.152,0.725c-2.312,0.542-4.614,1.177-6.913,1.904c-2.299,0.727-4.642,1.292-7.027,1.695
			c-2.022,0.248-3.784,0.314-5.285,0.204c-1.502-0.113-3.285-0.413-5.352-0.9c-4.859-1.146-8.93-3.315-12.212-6.505
			c-0.256-0.301-0.771-0.785-1.54-1.451c-0.771-0.664-1.233-1.135-1.385-1.414c-0.512-0.602-0.922-1.183-1.226-1.739
			c-0.334-0.441-0.634-0.903-0.899-1.39c-0.27-0.485-0.375-0.842-0.32-1.072c0.107-0.456,0.146-0.963,0.112-1.515
			c-0.034-0.551,0.104-1.031,0.421-1.441c0.156-0.204,0.504-1.332,1.043-3.379c0.537-2.048,1.12-4.295,1.755-6.745
			c0.631-2.448,1.225-4.846,1.778-7.193c0.553-2.345,0.925-3.919,1.113-4.722L2141.549,98.868z"/>
		<path d="M2201.994,114.483c0.414-1.225,0.811-2.487,1.194-3.786c0.381-1.297,0.78-2.559,1.195-3.786
			c-0.128-0.291-0.265-0.462-0.416-0.513c-0.15-0.051-0.309-0.165-0.472-0.346c-0.302-0.102-0.715-0.209-1.235-0.324
			c-0.523-0.113-1.017-0.311-1.48-0.593c-0.468-0.28-0.873-0.574-1.217-0.877c-0.347-0.303-0.426-0.731-0.237-1.29
			c0.075-0.222,0.287-0.523,0.641-0.901c0.075-0.222,0.768-0.701,2.083-1.438c1.313-0.735,2.907-1.561,4.788-2.479
			c1.878-0.917,3.921-1.902,6.127-2.959c2.204-1.053,4.281-2.06,6.229-3.016c1.946-0.955,3.584-1.737,4.911-2.345
			c1.323-0.606,2.125-0.987,2.403-1.144c0.275-0.154,0.681-0.358,1.216-0.613c0.532-0.254,0.952-0.33,1.254-0.229
			c0.302,0.102,0.547,0.371,0.736,0.808c0.188,0.436,0.207,0.879,0.058,1.323c-0.076,0.225-0.203,0.429-0.377,0.618
			c-1.521,1.845-3.095,3.767-4.72,5.761c-1.627,1.996-2.835,4.163-3.625,6.503l0.095,0.218c2.313,0.781,4.66,1.545,7.045,2.286
			c2.381,0.743,4.729,1.504,7.045,2.286l8.3,2.803c0.4,0.135,0.604,0.454,0.604,0.949c0,0.498-0.07,1.033-0.207,1.606
			c-0.139,0.576-0.327,1.132-0.564,1.671c-0.24,0.541-0.396,0.922-0.471,1.145c-0.451,1.337-0.988,1.932-1.61,1.783
			c-0.623-0.146-1.488-0.409-2.594-0.783c-1.61-0.544-3.214-1.022-4.81-1.439c-1.6-0.415-3.202-0.895-4.811-1.438l-9.959-3.364
			c-0.241,0.044-0.485,0.022-0.735-0.063c-0.253-0.085-0.548-0.121-0.887-0.113c-0.617,1.159-1.128,2.258-1.534,3.299
			c-0.41,1.043-0.819,2.176-1.232,3.401c-0.93,2.418-1.899,4.791-2.908,7.118c-1.013,2.329-1.931,4.719-2.758,7.168
			c-1.016,3.008-2.131,6.388-3.34,10.137c-1.212,3.751-1.904,7.209-2.076,10.378c-0.336,3.982,0.395,7.458,2.195,10.424
			c1.799,2.967,4.459,5.044,7.981,6.233c0.703,0.237,1.587,0.443,2.65,0.616c1.061,0.172,2.169,0.299,3.319,0.376
			c1.149,0.08,2.293,0.094,3.433,0.042c1.136-0.05,2.064-0.14,2.781-0.27c0.615-0.165,1.031-0.239,1.254-0.229
			c0.219,0.013,0.598,0.048,1.141,0.106c0.099,0.034,0.184,0.033,0.255-0.007c0.067-0.038,0.153-0.042,0.254-0.007
			c0.503,0.17,0.741,0.623,0.718,1.36c-0.025,0.736-0.112,1.329-0.263,1.773c-0.112,0.335-0.337,0.663-0.669,0.984
			c-0.335,0.323-0.739,0.527-1.216,0.614c-2.352,0.323-4.704,0.738-7.061,1.246c-2.357,0.507-4.743,0.851-7.156,1.028
			c-2.036,0.057-3.797-0.043-5.28-0.294c-1.485-0.254-3.232-0.719-5.244-1.398c-4.729-1.598-8.578-4.14-11.546-7.624
			c-0.228-0.324-0.694-0.854-1.397-1.589c-0.706-0.733-1.121-1.246-1.245-1.538c-0.454-0.647-0.808-1.265-1.058-1.847
			c-0.29-0.47-0.546-0.958-0.765-1.469c-0.223-0.508-0.294-0.873-0.218-1.098c0.149-0.444,0.234-0.944,0.253-1.497
			c0.019-0.552,0.202-1.017,0.556-1.395c0.174-0.189,0.626-1.278,1.355-3.266c0.727-1.989,1.519-4.171,2.381-6.551
			c0.857-2.378,1.674-4.709,2.446-6.995c0.771-2.282,1.288-3.815,1.552-4.596L2201.994,114.483z"/>
		<path d="M2299.279,187.769c-0.396,0.855-1.753,2.137-4.067,3.85c-2.317,1.715-4.923,3.423-7.818,5.125
			c-2.897,1.705-5.66,3.179-8.284,4.424c-2.625,1.243-4.446,1.827-5.461,1.745c-1.887-0.227-4.118-0.839-6.696-1.84
			c-2.58-1.002-4.785-1.927-6.613-2.775c-8.959-4.154-14.512-10.228-16.656-18.223c-2.147-7.996-0.968-16.846,3.534-26.557
			c2.078-4.481,4.83-8.713,8.259-12.699c3.427-3.983,7.233-7.21,11.422-9.677c4.185-2.465,8.592-4.019,13.222-4.662
			c4.626-0.641,9.204,0.087,13.733,2.187c2.215,1.027,4.208,2.407,5.982,4.135c1.771,1.729,3.155,3.668,4.151,5.814
			c0.994,2.146,1.527,4.469,1.6,6.964c0.071,2.497-0.512,5.08-1.748,7.745c-1.139,2.456-2.971,4.134-5.495,5.036
			c-2.525,0.904-4.88,1.563-7.061,1.977c-2.185,0.415-4.388,0.688-6.614,0.822c-2.229,0.133-4.456,0.204-6.68,0.208
			c-2.325-0.039-4.644-0.208-6.964-0.506c-2.319-0.298-4.689-0.619-7.104-0.96c-0.775-0.098-1.583-0.248-2.428-0.445
			c-0.847-0.198-1.68-0.293-2.501-0.285c-0.955,3.319-1.604,6.421-1.945,9.307c-0.346,2.887,0.048,5.889,1.18,9.005
			c0.986,2.664,2.476,5.007,4.465,7.029c1.986,2.024,4.233,3.616,6.739,4.777c4.335,2.01,8.889,2.536,13.667,1.573
			c4.774-0.961,9.28-2.727,13.519-5.301c0.34-0.231,0.668-0.435,0.986-0.612c0.314-0.176,0.666-0.177,1.053,0.001
			c0.48,0.223,0.767,0.617,0.858,1.176C2299.604,186.689,2299.526,187.236,2299.279,187.769z M2291.353,146.176
			c1.236-2.666,1.479-5.081,0.727-7.247c-0.753-2.163-2.285-3.781-4.597-4.854c-2.601-1.206-5.152-1.514-7.648-0.921
			c-2.499,0.592-4.845,1.74-7.04,3.445c-2.194,1.704-4.178,3.768-5.942,6.189c-1.768,2.422-3.194,4.808-4.282,7.154l-1.336,2.881
			c0.095,0.044,0.154,0.105,0.18,0.18c0.022,0.077,0.083,0.136,0.18,0.181c0.867,0.402,1.868,0.705,3.004,0.906
			c1.134,0.204,2.185,0.399,3.151,0.586c1.882,0.484,3.973,0.708,6.272,0.672c2.298-0.034,4.551-0.351,6.76-0.949
			c2.208-0.596,4.26-1.555,6.163-2.878C2288.843,150.198,2290.313,148.416,2291.353,146.176z"/>
		<path d="M2337.128,242.719c-0.448-0.287-0.603-0.735-0.464-1.344l0.15-0.532c-0.026-0.157,0.024-0.334,0.151-0.532
			c0.127-0.2,0.298-0.369,0.514-0.509c3.517-3.333,6.877-7.015,10.081-11.038c3.202-4.025,6.135-8.118,8.795-12.279
			c1.013-1.584,2.067-3.285,3.164-5.097c1.094-1.813,2.178-3.702,3.247-5.671c1.068-1.967,2.003-3.919,2.802-5.852
			c0.795-1.932,1.401-3.814,1.819-5.642c0.667-3.202,0.389-6.347-0.835-9.432c-1.226-3.086-3.129-5.455-5.71-7.105
			c-2.403-1.536-5.125-2.334-8.161-2.39c-3.035-0.057-5.925,0.295-8.667,1.055c-4.181,6.54-8.33,13.031-12.447,19.471
			c-4.118,6.442-8.313,12.901-12.581,19.385c-0.635,0.992-1.298,1.928-1.987,2.813c-0.693,0.885-1.354,1.823-1.987,2.813
			c-0.508,0.794-1.035,1.223-1.582,1.292c-0.492-0.034-1.293-0.13-2.411-0.285c-1.116-0.157-2.262-0.366-3.437-0.626
			c-1.175-0.264-2.267-0.507-3.274-0.732c-1.008-0.225-1.647-0.425-1.92-0.6c-0.269-0.171-0.261-0.48,0.024-0.926
			c0.285-0.446,0.492-0.769,0.618-0.966c2.343-3.665,4.715-7.278,7.118-10.839c2.399-3.56,4.773-7.172,7.117-10.839l7.602-11.891
			c1.203-1.881,2.503-4.017,3.904-6.403c1.397-2.385,2.456-4.78,3.175-7.184c0.714-2.402,0.891-4.697,0.526-6.887
			c-0.367-2.188-1.712-4.026-4.037-5.512c-0.358-0.229-0.711-0.418-1.055-0.569c-0.347-0.15-0.697-0.341-1.054-0.569l-0.402-0.257
			l0.017-0.618l0.263-1.298c0.696-1.089,1.589-1.497,2.672-1.223c2.169,0.549,4.355,0.972,6.564,1.265
			c2.204,0.294,4.416,0.383,6.636,0.265c0.399-0.023,1.013-0.086,1.843-0.184c0.828-0.099,1.379-0.06,1.652,0.114l0.353,0.644
			c0.116,0.215,0.222,0.351,0.313,0.41c1.124,1.837,1.575,4.079,1.354,6.728c-0.226,2.649-0.559,5.018-1,7.108
			c2.146-0.021,4.597,0.079,7.345,0.298c2.747,0.222,5.52,0.597,8.318,1.13c2.798,0.532,5.479,1.199,8.043,2.001
			c2.565,0.802,4.695,1.745,6.39,2.828c3.564,2.279,5.649,5.009,6.256,8.187c0.604,3.181,0.375,6.488-0.692,9.922
			c-1.068,3.436-2.633,6.868-4.695,10.293c-2.066,3.426-3.984,6.528-5.757,9.301c-2.408,3.767-4.851,7.44-7.328,11.019
			c-2.479,3.581-4.921,7.254-7.327,11.019c-1.141,1.784-0.951,3.161,0.57,4.134c0.806,0.515,1.697,0.843,2.682,0.981
			c0.98,0.139,1.829,0.437,2.547,0.895c0.625,0.399,0.868,0.905,0.732,1.516c-0.14,0.611-0.365,1.163-0.682,1.658
			c-0.57,0.892-1.25,1.262-2.032,1.109c-0.786-0.152-1.6-0.358-2.44-0.618c-2.835-0.693-5.746-1.265-8.736-1.711
			c-2.992-0.447-5.986-0.791-8.981-1.031c-0.243-0.018-0.524-0.021-0.842-0.015c-0.319,0.005-0.524-0.021-0.612-0.077
			c-0.421-0.132-1.116-0.226-2.086-0.286L2337.128,242.719z"/>
	</g>
</g>
</svg>
